<?xml version="1.0" encoding="UTF-8"?>
<svg width="467px" height="258px" viewBox="0 0 467 258" version="1.1" xmlns="http://www.w3.org/2000/svg" xmlns:xlink="http://www.w3.org/1999/xlink">
    <title>编组备份</title>
    <g id="页面-1" stroke="none" stroke-width="1" fill="none" fill-rule="evenodd">
        <g id="1、首页-欢迎登录" transform="translate(-543.000000, -220.000000)">
            <g id="编组备份" transform="translate(544.000000, 220.000000)">
                <polygon id="Fill-1" stroke="#094193" stroke-width="0.6" fill="#FFFFFF" points="139.265374 158.421927 339.467448 158.421927 339.467448 30.8577158 139.265374 30.8577158"></polygon>
                <polygon id="Fill-2" fill="#328AFA" points="139.265374 43.3002958 339.467448 43.3002958 339.467448 30.8578692 139.265374 30.8578692"></polygon>
                <g id="编组" transform="translate(0.000000, 0.001534)">
                    <path d="M149.802325,36.6850859 C149.802325,38.1709915 148.597769,39.3753942 147.112017,39.3753942 C145.626111,39.3753942 144.421709,38.1709915 144.421709,36.6850859 C144.421709,35.1991803 145.626111,33.9947776 147.112017,33.9947776 C148.597769,33.9947776 149.802325,35.1991803 149.802325,36.6850859" id="Fill-3" fill="#FFFFFF"></path>
                    <path d="M158.545804,36.6850859 C158.545804,38.1709915 157.341248,39.3753942 155.855496,39.3753942 C154.36959,39.3753942 153.165188,38.1709915 153.165188,36.6850859 C153.165188,35.1991803 154.36959,33.9947776 155.855496,33.9947776 C157.341248,33.9947776 158.545804,35.1991803 158.545804,36.6850859" id="Fill-5" fill="#FFFFFF"></path>
                    <path d="M166.616637,36.6850859 C166.616637,38.1709915 165.412081,39.3753942 163.926329,39.3753942 C162.440423,39.3753942 161.23602,38.1709915 161.23602,36.6850859 C161.23602,35.1991803 162.440423,33.9947776 163.926329,33.9947776 C165.412081,33.9947776 166.616637,35.1991803 166.616637,36.6850859" id="Fill-7" fill="#FFFFFF"></path>
                    <polygon id="Fill-9" fill="#EAF0FD" points="144.153859 155.495985 172.402019 155.495985 172.402019 48.1087021 144.153859 48.1087021"></polygon>
                    <polygon id="Fill-11" fill="#EAF0FD" points="175.247883 55.7413416 334.759371 55.7413416 334.759371 47.4462883 175.247883 47.4462883"></polygon>
                    <polygon id="Fill-12" fill="#EAF0FD" points="175.247883 154.833417 334.759371 154.833417 334.759371 59.7765739 175.247883 59.7765739"></polygon>
                    <path d="M95.070882,45.6579244 C95.070882,45.6579244 43.4900464,44.3519659 39.2460264,92.0155396 C35.6401819,132.511145 88.5825095,135.786397 106.774344,117.994342 C121.312011,103.776223 140.183532,100.097343 151.683025,112.51984 C158.367596,122.563783 163.370043,129.707052 166.690368,133.949646" id="Stroke-230" stroke="#094193" stroke-width="0.756363636" stroke-linecap="square" stroke-dasharray="0.9204453771764581,1.840890754352916"></path>
                    <path d="M185.284555,132.787896 C197.97274,129.19233 212.587571,133.043627 221.678043,142.657985 C226.416188,147.669043 228.719756,154.227983 232.627353,159.809256 C234.306246,162.206863 236.357611,164.540652 238.923046,166.014285 C240.921946,167.162387 243.204958,167.816364 245.478151,168.129315 C251.988461,169.025369 258.608457,166.90589 262.993612,161.924747 C263.188593,161.703226 262.864289,161.376468 262.668234,161.599369 C258.560133,166.26572 252.475069,168.376455 246.340148,167.771262 C243.944689,167.534861 241.519622,166.909572 239.397382,165.752265 C236.654148,164.256388 234.498158,161.746487 232.762966,159.197314 C229.035929,153.722198 226.72331,147.390915 222.151919,142.490617 C217.880285,137.911555 212.326471,134.603935 206.364747,132.743715 C199.514486,130.606441 192.079436,130.383847 185.162136,132.343935 C184.877718,132.424781 184.998603,132.868896 185.284555,132.787896" id="Fill-85" stroke="#094193" stroke-width="0.5" fill="#094193"></path>
                    <polygon id="Fill-13" fill="#FFFFFF" points="77.8371541 66.5024213 157.648968 66.5024213 157.648968 53.4992902 77.8371541 53.4992902"></polygon>
                    <polygon id="Stroke-14" stroke="#094193" stroke-width="0.5" points="77.8371541 66.5024213 157.648968 66.5024213 157.648968 53.4992902 77.8371541 53.4992902"></polygon>
                    <polygon id="Fill-15" fill="#FFFFFF" points="77.8371541 66.5024213 157.648968 66.5024213 157.648968 53.4992902 77.8371541 53.4992902"></polygon>
                    <polygon id="Stroke-16" stroke="#094193" stroke-width="0.5" points="77.8371541 66.5024213 157.648968 66.5024213 157.648968 53.4992902 77.8371541 53.4992902"></polygon>
                    <path d="M95.9965739,60.0009325 C95.9965739,61.5486613 94.7418535,62.8033817 93.1941247,62.8033817 C91.6465493,62.8033817 90.3918289,61.5486613 90.3918289,60.0009325 C90.3918289,58.4532036 91.6465493,57.1984833 93.1941247,57.1984833 C94.7418535,57.1984833 95.9965739,58.4532036 95.9965739,60.0009325" id="Fill-17" fill="#FFC53D"></path>
                    <path d="M95.9965739,60.0009325 C95.9965739,61.5486613 94.7418535,62.8033817 93.1941247,62.8033817 C91.6465493,62.8033817 90.3918289,61.5486613 90.3918289,60.0009325 C90.3918289,58.4532036 91.6465493,57.1984833 93.1941247,57.1984833 C94.7418535,57.1984833 95.9965739,58.4532036 95.9965739,60.0009325 Z" id="Stroke-18" stroke="#094193" stroke-width="0.5"></path>
                    <polygon id="Fill-19" fill="#094193" points="107.206263 61.0098172 132.98809 61.0098172 132.98809 58.9922011 107.206263 58.9922011"></polygon>
                    <polygon id="Stroke-20" stroke="#094193" stroke-width="0.5" points="107.206263 61.0098172 132.98809 61.0098172 132.98809 58.9922011 107.206263 58.9922011"></polygon>
                    <polygon id="Fill-21" fill="#328AFA" points="58.514859 96.2703902 150.230179 96.2703902 150.230179 81.3280342 58.514859 81.3280342"></polygon>
                    <path d="M79.3827199,88.7991662 C79.3827199,90.5777734 77.9409957,92.0194976 76.1625419,92.0194976 C74.3839347,92.0194976 72.9422105,90.5777734 72.9422105,88.7991662 C72.9422105,87.020559 74.3839347,85.5788348 76.1625419,85.5788348 C77.9409957,85.5788348 79.3827199,87.020559 79.3827199,88.7991662" id="Fill-22" fill="#FFC53D"></path>
                    <path d="M79.3827199,88.7991662 C79.3827199,90.5777734 77.9409957,92.0194976 76.1625419,92.0194976 C74.3839347,92.0194976 72.9422105,90.5777734 72.9422105,88.7991662 C72.9422105,87.020559 74.3839347,85.5788348 76.1625419,85.5788348 C77.9409957,85.5788348 79.3827199,87.020559 79.3827199,88.7991662 Z" id="Stroke-23" stroke="#094193" stroke-width="0.5"></path>
                    <polygon id="Fill-24" fill="#094193" points="92.2642141 89.9585898 121.891355 89.9585898 121.891355 87.639988 92.2642141 87.639988"></polygon>
                    <polygon id="Stroke-25" stroke="#094193" stroke-width="0.5" points="92.2642141 89.9585898 121.891355 89.9585898 121.891355 87.639988 92.2642141 87.639988"></polygon>
                    <polygon id="Fill-26" fill="#FFFFFF" points="82.4866303 82.9868301 162.298444 82.9868301 162.298444 69.983699 82.4866303 69.983699"></polygon>
                    <polygon id="Stroke-27" stroke="#094193" stroke-width="0.5" points="82.4866303 82.9868301 162.298444 82.9868301 162.298444 69.983699 82.4866303 69.983699"></polygon>
                    <path d="M100.646142,76.4853566 C100.646142,78.0330854 99.3914217,79.2878058 97.8436929,79.2878058 C96.2961175,79.2878058 95.0413971,78.0330854 95.0413971,76.4853566 C95.0413971,74.9376277 96.2961175,73.6829074 97.8436929,73.6829074 C99.3914217,73.6829074 100.646142,74.9376277 100.646142,76.4853566" id="Fill-28" fill="#FFC53D"></path>
                    <path d="M100.646142,76.4853566 C100.646142,78.0330854 99.3914217,79.2878058 97.8436929,79.2878058 C96.2961175,79.2878058 95.0413971,78.0330854 95.0413971,76.4853566 C95.0413971,74.9376277 96.2961175,73.6829074 97.8436929,73.6829074 C99.3914217,73.6829074 100.646142,74.9376277 100.646142,76.4853566 Z" id="Stroke-29" stroke="#094193" stroke-width="0.5"></path>
                    <polygon id="Fill-30" fill="#094193" points="111.855586 77.494226 137.637413 77.494226 137.637413 75.4766098 111.855586 75.4766098"></polygon>
                    <polygon id="Stroke-31" stroke="#094193" stroke-width="0.5" points="111.855586 77.494226 137.637413 77.494226 137.637413 75.4766098 111.855586 75.4766098"></polygon>
                    <g id="编组-13" transform="translate(50.867740, 160.458944)">
                        <g id="编组" transform="translate(3.023169, 0.484976)">
                            <polygon id="Fill-32" fill="#E6E6E6" points="25.0634637 0.185657231 25.0634637 19.5410202 17.9139899 25.9936828 17.9139899 25.9053883 17.9996595 25.9053883 17.9996595 4.9822001 17.9139899 4.9822001 17.9139899 4.89366689"></polygon>
                            <path d="M14.8618614,20.9873568 L14.8618614,21.7579059 C14.8618614,22.2160832 14.487206,22.5931248 14.0266425,22.5931248 L1.04972699,22.5931248 C0.591311123,22.5931248 0.214508079,22.2160832 0.214508079,21.7579059 L0.214508079,20.9873568 C0.214508079,20.5265546 0.591311123,20.1521379 1.04972699,20.1521379 L14.0266425,20.1521379 C14.487206,20.1521379 14.8618614,20.5265546 14.8618614,20.9873568" id="Fill-33" fill="#E6E6E6"></path>
                            <path d="M14.8618614,15.0571594 L14.8618614,15.8279471 C14.8618614,16.2885107 14.487206,16.6631661 14.0266425,16.6631661 L1.04972699,16.6631661 C0.591311123,16.6631661 0.214508079,16.2885107 0.214508079,15.8279471 L0.214508079,15.0571594 C0.214508079,14.5989822 0.591311123,14.2219405 1.04972699,14.2219405 L14.0266425,14.2219405 C14.487206,14.2219405 14.8618614,14.5989822 14.8618614,15.0571594" id="Fill-34" fill="#FFC53D"></path>
                            <path d="M14.8618614,9.12951538 L14.8618614,9.90030311 C14.8618614,10.3608667 14.487206,10.735522 14.0266425,10.735522 L1.04972699,10.735522 C0.591311123,10.735522 0.214508079,10.3608667 0.214508079,9.90030311 L0.214508079,9.12951538 C0.214508079,8.67133815 0.591311123,8.29429647 1.04972699,8.29429647 L14.0266425,8.29429647 C14.487206,8.29429647 14.8618614,8.67133815 14.8618614,9.12951538" id="Fill-35" fill="#F57423"></path>
                        </g>
                        <polygon id="Stroke-36" stroke="#094193" stroke-width="0.5" points="20.9016399 6.15770348 20.9868051 6.15770348 20.9868051 26.9577035 20.9016399 26.9577035 0.186805137 26.9577035 0.186805137 6.15770348"></polygon>
                        <path d="M17.2878567,11.8304307 L3.88575357,11.8304307 C3.41231774,11.8304307 3.02316877,11.3951335 3.02316877,10.8600229 L3.02316877,9.964475 C3.02316877,9.43213696 3.41231774,8.99406711 3.88575357,8.99406711 L17.2878567,8.99406711 C17.7635106,8.99406711 18.1504415,9.43213696 18.1504415,9.964475 L18.1504415,10.8600229 C18.1504415,11.3951335 17.7635106,11.8304307 17.2878567,11.8304307 Z" id="Stroke-37" stroke="#094193" stroke-width="0.5"></path>
                        <path d="M17.2878567,17.503158 L3.88575357,17.503158 C3.41231774,17.503158 3.02316877,17.0678608 3.02316877,16.5327501 L3.02316877,15.6372023 C3.02316877,15.1048642 3.41231774,14.6667944 3.88575357,14.6667944 L17.2878567,14.6667944 C17.7635106,14.6667944 18.1504415,15.1048642 18.1504415,15.6372023 L18.1504415,16.5327501 C18.1504415,17.0678608 17.7635106,17.503158 17.2878567,17.503158 Z" id="Stroke-38" stroke="#094193" stroke-width="0.5"></path>
                        <path d="M17.2878567,24.1213398 L3.88575357,24.1213398 C3.41231774,24.1213398 3.02316877,23.6832272 3.02316877,23.1508371 L3.02316877,22.255479 C3.02316877,21.7200387 3.41231774,21.2849762 3.88575357,21.2849762 L17.2878567,21.2849762 C17.7635106,21.2849762 18.1504415,21.7200387 18.1504415,22.255479 L18.1504415,23.1508371 C18.1504415,23.6832272 17.7635106,24.1213398 17.2878567,24.1213398 Z" id="Stroke-39" stroke="#094193" stroke-width="0.5"></path>
                        <polygon id="Stroke-40" stroke="#094193" stroke-width="0.5" stroke-linejoin="round" points="21.3691289 6.15770348 28.5504415 1.43043075 5.8366326 1.65305521 0.186805137 6.15770348"></polygon>
                        <polygon id="Stroke-41" stroke="#094193" stroke-width="0.5" stroke-linejoin="round" points="20.9868051 6.08722428 28.5504415 1.43043075 28.5504415 20.5752362 20.9868051 26.9577035 20.9868051 26.8703694 20.9868051 6.17455834"></polygon>
                    </g>
                    <polygon id="Fill-42" fill="#FFFFFF" points="248.578535 47.573003 323.478239 47.573003 323.478239 18.737752 248.578535 18.737752"></polygon>
                    <polygon id="Stroke-43" stroke="#094193" stroke-width="0.5" points="248.578535 47.573003 323.478239 47.573003 323.478239 18.737752 248.578535 18.737752"></polygon>
                    <path d="M267.465628,31.5403948 C267.465628,35.040695 264.627895,37.8782745 261.127748,37.8782745 C257.627295,37.8782745 254.789715,35.040695 254.789715,31.5403948 C254.789715,28.0400946 257.627295,25.2025151 261.127748,25.2025151 C264.627895,25.2025151 267.465628,28.0400946 267.465628,31.5403948" id="Fill-44" fill="#094193"></path>
                    <path d="M261.039447,31.2203866 C259.625643,31.2203866 256.802791,32.0357478 256.802791,33.6554248 L256.802791,34.5683531 C256.802791,34.7367946 256.93871,34.8724069 257.105157,34.8724069 L264.97297,34.8724069 C265.140184,34.8719467 265.275643,34.7358742 265.275184,34.5685065 L265.275184,34.5683531 L265.275184,33.6554248 C265.276257,32.0368216 262.453558,31.2203866 261.039447,31.2203866 M261.353012,30.6227108 C262.323775,30.5156323 263.109682,29.7294186 263.216914,28.7583488 C263.357742,27.4801571 262.361513,26.3998611 261.112009,26.3998611 C259.942583,26.3998611 258.993911,27.3473061 258.993911,28.5174989 L258.993911,28.5184194 C258.993911,29.7682307 260.074974,30.7635389 261.353012,30.6227108" id="Fill-45" fill="#FFFFFF"></path>
                    <path d="M261.039447,31.2203866 C259.625643,31.2203866 256.802791,32.0357478 256.802791,33.6554248 L256.802791,34.5683531 C256.802791,34.7367946 256.93871,34.8724069 257.105157,34.8724069 L264.97297,34.8724069 C265.140184,34.8719467 265.275643,34.7358742 265.275184,34.5685065 L265.275184,34.5683531 L265.275184,33.6554248 C265.276257,32.0368216 262.453558,31.2203866 261.039447,31.2203866 Z M261.353012,30.6227108 C262.323775,30.5156323 263.109682,29.7294186 263.216914,28.7583488 C263.357742,27.4801571 262.361513,26.3998611 261.112009,26.3998611 C259.942583,26.3998611 258.993911,27.3473061 258.993911,28.5174989 L258.993911,28.5184194 C258.993911,29.7682307 260.074974,30.7635389 261.353012,30.6227108 Z" id="Stroke-46" stroke="#1E53F9" stroke-width="0.5"></path>
                    <polygon id="Fill-47" fill="#094193" points="273.433627 27.6422935 304.027542 27.6422935 304.027542 25.9569581 273.433627 25.9569581"></polygon>
                    <polygon id="Stroke-48" stroke="#094193" stroke-width="0.5" points="273.433627 27.6422935 304.027542 27.6422935 304.027542 25.9569581 273.433627 25.9569581"></polygon>
                    <polygon id="Fill-49" fill="#094193" points="273.433627 33.9942867 290.675102 33.9942867 290.675102 32.1794753 273.433627 32.1794753"></polygon>
                    <polygon id="Stroke-50" stroke="#094193" stroke-width="0.5" points="273.433627 33.9942867 290.675102 33.9942867 290.675102 32.1794753 273.433627 32.1794753"></polygon>
                    <path d="M306.541447,43.806556 C305.014275,43.806556 303.764617,42.5568981 303.764617,41.0297259 C303.764617,39.5024003 305.014275,38.2528957 306.541447,38.2528957 L317.648921,38.2528957 C319.176093,38.2528957 320.425751,39.5024003 320.425751,41.0297259 C320.425751,42.5568981 319.176093,43.806556 317.648921,43.806556 L306.541447,43.806556 Z" id="Fill-51" fill="#328AFA"></path>
                    <g id="编组-14" transform="translate(359.272727, 170.398466)">
                        <path d="M7.54151537,6.12956758 L12.7059807,7.25312451 L7.60609995,30.6973272 L2.44163464,29.5739237 L7.54151537,6.12956758 Z M0.983035608,36.314805 L37.3137797,44.217902 L36.3307441,48.7368283 L0,40.8338848 L0.983035608,36.314805 Z" id="Fill-52" fill="#328AFA"></path>
                        <polygon id="Fill-53" fill="#FFC53D" points="19.692759 -6.04607273e-14 24.8572243 1.12340352 17.8899134 33.1524464 12.7252947 32.0290428"></polygon>
                        <polygon id="Fill-54" fill="#094193" points="28.760296 8.0461035 33.9249148 9.16950702 28.2190742 35.3994375 23.0546089 34.2758806"></polygon>
                        <polygon id="Fill-55" fill="#FFC53D" points="40.3509578 4.4939209 45.5155765 5.61732442 38.5481122 37.6462138 33.3836469 36.5228103"></polygon>
                    </g>
                    <path d="M247.18182,101.933783 L247.171389,101.942987 L247.171389,101.958021 L246.039241,102.946886 L246.021446,102.946886 L241.21534,107.145191 C240.981087,107.350604 240.600636,107.351064 240.365309,107.146418 C240.364849,107.146111 240.364389,107.145651 240.363775,107.145191 L239.084816,106.028384 C238.849796,105.822971 238.849796,105.489923 239.084816,105.284357 L241.760551,102.94704 L237.937021,102.94704 L222.947415,116.041142 C222.834661,116.177368 222.6541,116.25806 222.461727,116.25852 L211.010927,116.25852 C210.678186,116.25852 210.408035,116.023193 210.408035,115.732486 L210.408035,115.732179 L210.408035,114.152848 C210.408035,113.86168 210.677726,113.626046 211.010927,113.626046 L221.450465,113.626046 L236.440223,100.531484 C236.553285,100.395565 236.733999,100.31472 236.926219,100.314566 L241.932367,100.314566 L239.085583,97.8272161 C238.850103,97.6222636 238.849796,97.2892158 239.084663,97.0836497 C239.08497,97.0833429 239.085277,97.083036 239.085583,97.0828826 L240.363775,95.9659222 C240.598949,95.7603561 240.98032,95.7602027 241.215647,95.9656154 C241.215801,95.9657688 241.215954,95.9657688 241.215954,95.9659222 L247.18182,101.177484 C247.301018,101.281801 247.359006,101.418947 247.357671,101.555633 C247.35962,101.697228 247.296416,101.833761 247.18182,101.933783 L247.18182,101.933783 Z M210.408035,107.036885 C210.408035,106.745871 210.643669,106.510237 210.934683,106.510237 L221.463658,106.510237 C221.754672,106.510237 221.990306,106.745871 221.990306,107.036885 L221.990306,108.616216 C221.990306,108.90677 221.754672,109.142404 221.463658,109.142404 L210.934683,109.142404 C210.643976,109.142557 210.408189,108.907077 210.408035,108.616523 L210.408035,108.616216 L210.408035,107.036885 Z M216.199017,91.9009289 C219.397258,91.9009289 221.990306,94.4935165 221.990306,97.6919106 C221.990306,100.889998 219.397258,103.482892 216.199017,103.482892 C213.000776,103.482892 210.408035,100.889998 210.408035,97.6919106 C210.408035,94.4935165 213.000776,91.9009289 216.199017,91.9009289 L216.199017,91.9009289 Z M256.912001,82.687578 L198.948031,82.687578 C198.599796,82.687578 198.317986,82.9235188 198.317986,83.2142261 L198.317986,124.278667 C198.317986,124.569221 198.599796,124.804855 198.948031,124.804855 L256.912001,124.804855 C257.259776,124.804855 257.541739,124.569221 257.541739,124.278667 L257.541739,83.2142261 C257.541739,82.9235188 257.259776,82.687578 256.912001,82.687578 L256.912001,82.687578 Z M245.808056,116.249623 L235.279235,116.249623 C234.988528,116.249776 234.752587,116.014142 234.752434,115.723435 L234.752434,114.144104 C234.752434,113.853396 234.988068,113.617762 235.279235,113.617762 L245.808056,113.617762 C246.099223,113.617762 246.334857,113.853396 246.334857,114.144104 L246.334857,115.723435 C246.334857,116.013988 246.099223,116.249623 245.808056,116.249623 L245.808056,116.249623 Z" id="Fill-56" fill="#094193"></path>
                    <path d="M222.822526,97.6215886 C222.822526,101.00714 220.077912,103.751754 216.69236,103.751754 C213.306809,103.751754 210.562195,101.00714 210.562195,97.6215886 C210.562195,94.2360373 213.306809,91.4914227 216.69236,91.4914227 C220.077912,91.4914227 222.822526,94.2360373 222.822526,97.6215886" id="Fill-57" fill="#FFC53D"></path>
                    <path d="M347.522204,61.4521679 C351.450051,61.4521679 354.981646,63.1482418 357.425122,65.8476012 L363.397278,60.4479621 C359.48738,56.1160396 353.82526,53.3864589 347.527573,53.3864589 L347.516835,53.3864589 L347.516835,61.4521679 L347.522204,61.4521679 Z" id="Fill-58" fill="#FF7946"></path>
                    <path d="M360.1879,70.564638 L367.86288,67.9956751 C366.901475,65.1645387 365.368473,62.6006382 363.397339,60.4426542 L357.423496,65.8458216 C358.646461,67.1962684 359.596667,68.79815 360.1879,70.564638" id="Fill-59" fill="#094193"></path>
                    <path d="M367.862911,67.9956598 L360.187624,70.5633954 C360.633886,71.8965071 360.876117,73.3230439 360.876117,74.8061882 C360.876117,81.199448 356.38281,86.5424797 350.38212,87.85212 L352.099824,95.6915528 C361.746858,93.6297553 368.995365,85.1153292 368.995365,74.8488355 C368.995365,72.3383208 367.862911,67.9956598 367.862911,67.9956598" id="Fill-60" fill="#036DF3"></path>
                    <path d="M347.522204,88.1600703 C340.147136,88.1600703 334.16823,82.1811643 334.16823,74.8060961 L326.2254,74.8060961 C326.2254,86.6055916 335.792049,96.1723935 347.591698,96.1723935 C349.140807,96.1723935 350.646963,96.0067133 352.099885,95.6969835 C352.099885,95.6969835 351.18619,91.5316615 350.37896,87.8526416 C349.458514,88.0532987 348.502939,88.1600703 347.522204,88.1600703" id="Fill-61" fill="#FFC53D"></path>
                    <path d="M347.516804,61.4521679 L347.516804,52.0349384 L347.458049,52.0349384 C334.92143,52.0349384 324.756492,62.2000298 324.756492,74.7366485 L324.756492,74.8061421 L334.168199,74.8061421 C334.168199,67.432608 340.14419,61.4552361 347.516804,61.4521679" id="Fill-62" fill="#FFFFFF"></path>
                    <path d="M347.516804,61.4521679 L347.516804,52.0349384 L347.458049,52.0349384 C334.92143,52.0349384 324.756492,62.2000298 324.756492,74.7366485 L324.756492,74.8061421 L334.168199,74.8061421 C334.168199,67.432608 340.14419,61.4552361 347.516804,61.4521679 Z" id="Stroke-63" stroke="#094193" stroke-width="0.5"></path>
                    <path d="M178.754445,3.6613781 L181.126433,1.28939049 C181.420362,0.99546162 181.420362,0.512688047 181.126433,0.21891258 C180.832657,-0.0750162941 180.34973,-0.0750162941 180.04537,0.21891258 L177.673382,2.59074678 L175.301395,0.21891258 C175.007619,-0.0750162941 174.524846,-0.0750162941 174.220332,0.21891258 C173.926556,0.512688047 173.926556,0.99546162 174.220332,1.28939049 L176.592319,3.65094639 L174.220332,6.02293399 C173.926556,6.31670946 173.926556,6.79948303 174.220332,7.09341191 C174.367296,7.24037634 174.556294,7.31385856 174.755724,7.31385856 C174.955,7.31385856 175.15443,7.22979122 175.290963,7.09341191 L177.662951,4.73200942 L180.034938,7.10384362 C180.181903,7.25080806 180.370747,7.32429028 180.570177,7.32429028 C180.769607,7.32429028 180.96919,7.24037634 181.105416,7.10384362 C181.399345,6.80991475 181.399345,6.32714117 181.105416,6.03336571 L178.754445,3.6613781 Z" id="Fill-64" fill="#094193"></path>
                    <path d="M100.022479,45.4008594 C100.022479,46.5857793 99.0618409,47.5461106 97.8772278,47.5461106 C96.6923079,47.5461106 95.7318232,46.5857793 95.7318232,45.4008594 C95.7318232,44.2159394 96.6923079,43.2556081 97.8772278,43.2556081 C99.0618409,43.2556081 100.022479,44.2159394 100.022479,45.4008594" id="Fill-65" fill="#FFFFFF"></path>
                    <path d="M100.022479,45.4008594 C100.022479,46.5857793 99.0618409,47.5461106 97.8772278,47.5461106 C96.6923079,47.5461106 95.7318232,46.5857793 95.7318232,45.4008594 C95.7318232,44.2159394 96.6923079,43.2556081 97.8772278,43.2556081 C99.0618409,43.2556081 100.022479,44.2159394 100.022479,45.4008594 Z" id="Stroke-66" stroke="#094193" stroke-width="0.5"></path>
                    <path d="M409.801299,80.9236979 C409.801299,83.0913466 408.044169,84.8486302 405.87652,84.8486302 C403.708871,84.8486302 401.951588,83.0913466 401.951588,80.9236979 C401.951588,78.7560492 403.708871,76.998919 405.87652,76.998919 C408.044169,76.998919 409.801299,78.7560492 409.801299,80.9236979" id="Fill-67" fill="#FFFFFF"></path>
                    <path d="M409.801299,80.9236979 C409.801299,83.0913466 408.044169,84.8486302 405.87652,84.8486302 C403.708871,84.8486302 401.951588,83.0913466 401.951588,80.9236979 C401.951588,78.7560492 403.708871,76.998919 405.87652,76.998919 C408.044169,76.998919 409.801299,78.7560492 409.801299,80.9236979 Z" id="Stroke-68" stroke="#094193" stroke-width="0.5"></path>
                    <path d="M0.855400154,142.124614 C-0.143129618,140.456 0.875343136,138.356464 2.42859462,137.431723 C4.41982468,136.246496 6.99078188,136.99758 8.89058104,137.99657 C12.249286,139.762751 15.5498496,143.515713 13.1675837,147.381124 C12.1903775,148.966744 10.4459802,150.174522 8.55385145,150.262578 C8.0449986,150.286202 7.36049409,150.285129 6.91760648,150.002705 C6.27191408,149.591266 6.31854998,148.623264 6.4773268,147.988311 C6.72845497,146.983645 7.4318286,146.122415 8.29505291,145.569994 C10.1779772,144.364978 12.6878782,144.652617 14.7183806,145.281281 C16.5388681,145.8449 18.2666974,146.830697 19.5519458,148.252939 C20.9316934,149.779651 21.6580782,151.757381 21.4150806,153.817798 C21.1860431,155.757943 20.1339741,157.558027 18.3496908,158.433831 C18.0838355,158.564227 18.3167082,158.961246 18.5819499,158.831003 C22.4619337,156.926909 22.7570899,151.610723 20.3222052,148.460652 C18.9341736,146.66471 16.8867964,145.451103 14.7321873,144.805104 C12.4537783,144.121827 9.63859627,143.905829 7.65565022,145.462915 C6.83169825,146.109835 6.18462518,147.034422 5.98811011,148.074832 C5.81475957,148.991443 5.95098548,150.1015 6.90763499,150.503427 C8.76417321,151.283351 11.1126895,150.259049 12.4632896,148.971039 C13.9528769,147.550332 14.7930901,145.450183 14.3264243,143.403266 C13.8043784,141.114118 11.9980045,139.356068 10.0733533,138.147523 C7.87778436,136.768849 4.75287248,135.597429 2.28316426,136.985461 C0.462830222,138.008382 -0.687573028,140.442653 0.458074588,142.357026 C0.609948067,142.610762 1.00804067,142.379577 0.855400154,142.124614" id="Fill-69" stroke="#04307E" stroke-width="0.5" fill="#094193"></path>
                    <g id="编组-15" transform="translate(232.000000, 200.998466)">
                        <polygon id="Fill-71" fill="#094193" points="44.3795782 40.6704597 2.21489827 30.8878134 8.52651283e-14 28.1370625 8.65709511 3.1207392 48.8942091 9.7652806 50.8216217 12.9033855"></polygon>
                        <polygon id="Stroke-72" stroke="#094193" stroke-width="0.5" points="44.3795782 40.6704597 2.21489827 30.8878134 8.52651283e-14 28.1370625 8.65709511 3.1207392 48.8942091 9.7652806 50.8216217 12.9033855"></polygon>
                        <polygon id="Fill-73" fill="#FFFFFF" points="42.2441604 37.5495671 0.0794804539 27.7669207 6.52167729 2.94875235e-13 48.6863572 9.78249293"></polygon>
                        <g id="编组" transform="translate(13.152811, 9.027360)">
                            <line x1="0.0442887609" y1="0.125333972" x2="25.3873702" y2="5.23165783" id="Fill-75" fill="#094193"></line>
                            <line x1="0.0442887609" y1="0.125333972" x2="25.3873702" y2="5.23165783" id="Stroke-76" stroke="#094193" stroke-width="0.5" stroke-linecap="round"></line>
                        </g>
                        <g id="编组" transform="translate(11.465328, 17.157960)">
                            <line x1="0.0484767872" y1="0.0384439331" x2="24.4270849" y2="5.23359076" id="Fill-77" fill="#094193"></line>
                            <line x1="0.0484767872" y1="0.0384439331" x2="24.4270849" y2="5.23359076" id="Stroke-78" stroke="#094193" stroke-width="0.5" stroke-linecap="round"></line>
                        </g>
                        <g id="编组" transform="translate(23.891340, 26.362413)">
                            <line x1="0.0860923195" y1="0.000843741549" x2="10.5961973" y2="2.44984194" id="Fill-79" fill="#094193"></line>
                            <line x1="0.0860923195" y1="0.000843741549" x2="10.5961973" y2="2.44984194" id="Stroke-80" stroke="#094193" stroke-width="0.5" stroke-linecap="round"></line>
                        </g>
                        <polygon id="Stroke-74" stroke="#094193" stroke-width="0.642909091" points="42.2441604 37.5495671 0.0794804539 27.7669207 6.52167729 0 48.6863572 9.78249293"></polygon>
                    </g>
                    <g id="编组-16" transform="translate(122.000000, 224.998466)">
                        <path d="M27.4181818,12.1433902 C27.4181818,15.0808419 26.3691888,17.7749176 24.6234844,19.8750447 C23.7025211,20.9830076 20.7370729,23.3229374 19.4799315,24.0489628 C17.6795282,25.0885052 17.4382412,24.2866482 15.2063694,24.2866482 C8.462044,24.2866482 2.99455693,18.8499275 2.99455693,12.1433902 C2.99455693,9.34052987 2.23436302,7.14842547 4.04687717,5.27248488 C4.893977,4.39559018 7.5192545,2.59826043 8.74698363,1.83584112 C10.6207179,0.6724271 12.8346229,0 15.2063694,0 C21.9508278,0 27.4181818,5.43672066 27.4181818,12.1433902" id="Fill-81" fill="#094193"></path>
                        <path d="M23.6363636,13.7091553 C23.6363636,20.2361224 18.3452421,25.5272727 11.8181818,25.5272727 C5.2912503,25.5272727 0,20.2361224 0,13.7091553 C0,7.18205943 5.2912503,1.89090909 11.8181818,1.89090909 C18.3452421,1.89090909 23.6363636,7.18205943 23.6363636,13.7091553" id="Fill-83" stroke="#094193" stroke-width="0.642909091" fill="#EEF5FF"></path>
                    </g>
                    <g id="编组-19" transform="translate(96.967961, 4.382263)">
                        <path d="M26.3967672,11.6965726 C25.4051408,12.6852842 23.7998841,12.6829831 22.8111725,11.6913567 C21.8226142,10.6998837 21.8249153,9.09447362 22.8163883,8.10591534 C23.8080147,7.11720365 25.4132714,7.11950477 26.4019831,8.1111312 C27.3906948,9.10275763 27.3882402,10.7080143 26.3967672,11.6965726" id="Fill-86" fill="#FFFFFF"></path>
                        <path d="M26.3967672,11.6965726 C25.4051408,12.6852842 23.7998841,12.6829831 22.8111725,11.6913567 C21.8226142,10.6998837 21.8249153,9.09447362 22.8163883,8.10591534 C23.8080147,7.11720365 25.4132714,7.11950477 26.4019831,8.1111312 C27.3906948,9.10275763 27.3882402,10.7080143 26.3967672,11.6965726 Z" id="Stroke-87" stroke="#094193" stroke-width="0.5"></path>
                        <g id="编组" transform="translate(4.039181, 5.447224)">
                            <line x1="0.108996067" y1="0.14315993" x2="18.1685936" y2="4.16872756" id="Fill-88" fill="#FFFFFF"></line>
                            <line x1="0.108996067" y1="0.14315993" x2="18.1685936" y2="4.16872756" id="Stroke-89" stroke="#094193" stroke-width="0.5"></line>
                        </g>
                        <path d="M3.65994212,6.7604237 C2.8209562,7.5969551 1.46268572,7.5949608 0.626154322,6.75597488 C-0.210377072,5.91698897 -0.208536181,4.55856507 0.630603142,3.72203368 C1.46958906,2.88550229 2.82785954,2.88749658 3.66439094,3.7264825 C4.50092233,4.56546841 4.49908144,5.92389231 3.65994212,6.7604237" id="Fill-90" fill="#FFFFFF"></path>
                        <path d="M3.65994212,6.7604237 C2.8209562,7.5969551 1.46268572,7.5949608 0.626154322,6.75597488 C-0.210377072,5.91698897 -0.208536181,4.55856507 0.630603142,3.72203368 C1.46958906,2.88550229 2.82785954,2.88749658 3.66439094,3.7264825 C4.50092233,4.56546841 4.49908144,5.92389231 3.65994212,6.7604237 Z" id="Stroke-91" stroke="#094193" stroke-width="0.5"></path>
                        <path d="M25.6364794,2.7788687 C25.5020944,4.17257633 24.2633284,5.1935036 22.8694673,5.05911858 C21.4757597,4.92473357 20.4548324,3.68612097 20.5892174,2.29225993 C20.7236025,0.898552302 21.9622151,-0.122374973 23.3560761,0.0118566374 C24.7497837,0.146241655 25.770711,1.38500766 25.6364794,2.7788687" id="Fill-92" fill="#FF7946"></path>
                        <path d="M25.6364794,2.7788687 C25.5020944,4.17257633 24.2633284,5.1935036 22.8694673,5.05911858 C21.4757597,4.92473357 20.4548324,3.68612097 20.5892174,2.29225993 C20.7236025,0.898552302 21.9622151,-0.122374973 23.3560761,0.0118566374 C24.7497837,0.146241655 25.770711,1.38500766 25.6364794,2.7788687 Z" id="Stroke-93" stroke="#094193" stroke-width="0.5"></path>
                        <g id="编组" transform="translate(4.499404, 3.759741)">
                            <line x1="0.0982115163" y1="8.48784055" x2="16.5826203" y2="0.0843281326" id="Fill-94" fill="#FFFFFF"></line>
                            <line x1="0.0982115163" y1="8.48784055" x2="16.5826203" y2="0.0843281326" id="Stroke-95" stroke="#094193" stroke-width="0.5"></line>
                        </g>
                        <path d="M4.96689778,13.4603146 C4.85322278,14.6395584 3.80498896,15.5035498 2.62559168,15.3898748 C1.44634781,15.2761998 0.582356466,14.2281194 0.696031463,13.0485687 C0.809706461,11.8693248 1.85794028,11.0054869 3.03733756,11.1191619 C4.21658143,11.2326835 5.08057278,12.2810707 4.96689778,13.4603146" id="Fill-96" fill="#FFFFFF"></path>
                        <path d="M4.96689778,13.4603146 C4.85322278,14.6395584 3.80498896,15.5035498 2.62559168,15.3898748 C1.44634781,15.2761998 0.582356466,14.2281194 0.696031463,13.0485687 C0.809706461,11.8693248 1.85794028,11.0054869 3.03733756,11.1191619 C4.21658143,11.2326835 5.08057278,12.2810707 4.96689778,13.4603146 Z" id="Stroke-97" stroke="#094193" stroke-width="0.5"></path>
                    </g>
                    <path d="M233.711625,187.341935 C233.577393,188.735796 232.338627,189.756724 230.944766,189.622339 C229.551058,189.487954 228.530131,188.249188 228.664363,186.85548 C228.798748,185.461619 230.037514,184.440692 231.431375,184.575077 C232.825082,184.709462 233.84601,185.948228 233.711625,187.341935" id="Fill-98" fill="#FF7946"></path>
                    <path d="M233.711625,187.341935 C233.577393,188.735796 232.338627,189.756724 230.944766,189.622339 C229.551058,189.487954 228.530131,188.249188 228.664363,186.85548 C228.798748,185.461619 230.037514,184.440692 231.431375,184.575077 C232.825082,184.709462 233.84601,185.948228 233.711625,187.341935 Z" id="Stroke-99" stroke="#094193" stroke-width="0.5"></path>
                    <g transform="translate(212.574395, 188.364167)">
                        <line x1="0.0985183314" y1="8.44649722" x2="16.5829271" y2="0.0431382043" id="Fill-100" fill="#FFFFFF"></line>
                        <line x1="0.0985183314" y1="8.44649722" x2="16.5829271" y2="0.0431382043" id="Stroke-101" stroke="#094193" stroke-width="0.5"></line>
                    </g>
                    <path d="M213.042196,198.02355 C212.928521,199.202794 211.880288,200.066785 210.70089,199.95311 C209.521647,199.839435 208.657655,198.791201 208.77133,197.611804 C208.885005,196.43256 209.933239,195.568569 211.112636,195.682244 C212.29188,195.795919 213.155718,196.844306 213.042196,198.02355" id="Fill-102" fill="#FFFFFF"></path>
                    <path d="M213.042196,198.02355 C212.928521,199.202794 211.880288,200.066785 210.70089,199.95311 C209.521647,199.839435 208.657655,198.791201 208.77133,197.611804 C208.885005,196.43256 209.933239,195.568569 211.112636,195.682244 C212.29188,195.795919 213.155718,196.844306 213.042196,198.02355 Z" id="Stroke-103" stroke="#094193" stroke-width="0.5"></path>
                    <path d="M304.414681,107.343056 C328.119217,107.343056 347.336581,126.560574 347.336581,150.264956 C347.336581,173.969644 328.119217,193.185321 304.414681,193.185321 C280.710146,193.185321 261.494316,173.969644 261.494316,150.264956 C261.494316,126.560574 280.710146,107.343056 304.414681,107.343056" id="Fill-104" fill="#92B7FE"></path>
                    <g transform="translate(271.943119, 77.143690)">
                        <path d="M78.9897032,160.343049 C80.432041,161.462157 80.1663391,163.496187 80.1663391,163.496187 C79.4226193,166.51893 79.3348702,167.073958 77.1228866,172.317889 C75.7204348,175.643611 74.7398537,176.690158 74.059798,177.429429 C72.3014406,179.336284 66.9085514,179.797734 63.9034509,179.048492 C63.1023566,178.847835 62.9784033,177.762476 63.712305,177.386628 C65.3390387,176.559301 68.5836085,175.35183 68.8632705,174.60044 C70.6771614,169.727602 69.5479284,168.781845 68.0198358,164.456212 C69.6266265,162.084685 71.7266225,159.178685 73.2372267,156.772795 L73.4381906,156.48761 C76.0456588,158.317302 78.4395837,159.915962 78.9897032,160.343049" id="Fill-106" fill="#094193"></path>
                        <path d="M67.9839077,164.356067 C67.3868455,163.816686 66.7420736,163.277919 66.0742905,162.737771 L66.3429071,162.647721 C67.9585955,160.254256 69.5755111,157.862479 71.1911994,155.468708 L71.503844,155.113723 C72.1455478,155.576553 72.7979902,156.038923 73.4381599,156.487641 L73.237196,156.772672 C71.7265918,159.178716 69.6265958,162.084562 68.0198051,164.456089 C68.0081461,164.42372 67.9952599,164.389817 67.9839077,164.356067" id="Fill-107" fill="#FFC53D"></path>
                        <path d="M71.5038901,155.113707 L71.1912455,155.468692 C69.5755571,157.862464 67.9586415,160.254241 66.3427997,162.647706 L66.0741831,162.737756 C64.3689047,161.361843 62.5128267,159.994062 60.9311948,158.682427 L60.4636086,158.574121 C62.3991517,156.476733 65.1054144,153.178011 66.7833862,151.479482 L66.8067042,151.452789 C67.8972785,152.451166 69.6542552,153.782283 71.5038901,155.113707" id="Fill-108" fill="#D8DCE7"></path>
                        <path d="M10.4025969,117.352821 L10.4012163,117.351134 C16.0283588,108.421894 28.5901364,95.0421469 35.9148869,85.4285557 L35.9699602,85.4707428 C39.8011604,86.9379326 45.8636736,88.1151822 49.9627234,88.3074019 C52.6820257,88.4354972 56.3196257,88.3624752 59.3374591,88.2543229 L59.3903847,89.71599 C58.280481,94.5661233 52.7183833,99.7628042 47.9004657,104.265009 C45.8004697,106.223717 43.8428359,108.052795 42.4534236,109.663728 C40.3824217,112.066397 38.0845299,114.117456 35.7717576,116.268843 C34.5257815,117.42707 31.0802478,121.031534 30.3897604,121.58733 C29.4467642,122.34455 28.607318,123.281256 27.8611437,124.227321 C27.7990136,124.306479 27.7333552,124.405273 27.761889,124.501306 C27.7631162,124.504528 27.7644969,124.506215 27.7640367,124.509284 L27.754372,124.512812 C26.6502978,126.023416 27.1200318,126.386839 27.1200318,126.386839 L30.348954,126.11362 C48.3836995,136.900779 55.7782504,141.949421 66.7108398,151.181948 L66.6244713,151.282737 C66.6829196,151.337657 66.7425951,151.394111 66.8067195,151.452713 L66.7834016,151.479406 C65.1054297,153.177934 62.3991671,156.476657 60.4636239,158.574045 C60.1868767,158.873189 59.9254702,159.147789 59.6863079,159.391247 L59.591502,159.396923 C52.5594531,152.940919 12.2009937,140.450936 7.63405081,132.068901 C4.07898414,125.540796 8.04058083,120.953603 10.4025969,117.352821" id="Fill-109" fill="#036DF3"></path>
                        <path d="M59.3903847,89.715944 L59.3374591,88.2544302 C62.5166772,88.1406018 65.0069421,87.9865807 65.0069421,87.9865807 C65.0075557,88.006677 65.0067887,88.02662 65.0074023,88.0468698 C65.0719869,95.1103673 64.862739,98.2124214 64.2472679,101.338561 C58.4510702,108.266906 48.8569618,112.78798 48.4728293,113.003364 C48.0871627,113.218442 47.6074573,113.185919 47.6074573,113.185919 C47.6563943,108.57863 47.4693905,108.91628 47.9004657,104.264963 C52.7183833,99.7627582 58.280481,94.5660773 59.3903847,89.715944" id="Fill-110" fill="#094193"></path>
                        <path d="M38.1746108,82.297707 C38.0262657,82.2460086 37.8800683,82.1883274 37.736172,82.1265041 C35.6616417,81.2424164 33.9862778,79.6925399 32.3788734,78.1581575 C26.3117581,72.3671757 20.498839,66.3376452 14.9635876,60.091043 L14.9721784,60.0842931 C14.9842976,60.0858272 19.3318677,56.0559641 20.8410913,53.9200707 L21.0621515,53.6729312 C26.0004941,58.0856995 30.5286249,62.5282288 36.2537948,66.056756 L36.3768277,66.0219325 C36.8922771,64.6543041 37.5572988,62.5368197 38.3137515,60.1303153 C39.3903657,56.7008895 40.6490747,52.6871342 41.9153006,49.4284509 C43.100374,46.3826974 44.5500754,44.8760818 45.2486934,43.0592761 C45.2551365,43.044549 45.2601989,43.0281344 45.2664887,43.0134072 L45.289193,42.8107559 C47.8523264,43.0947132 50.2832225,42.6878764 52.7584534,42.0500078 L52.7684249,42.0447919 C52.80647,42.114439 52.8458957,42.1854667 52.8868555,42.2568012 L52.9089462,42.2656988 C56.1743794,44.6418284 58.6443944,48.0910439 59.8402063,51.9493973 C60.5342221,54.1889942 65.9861732,78.1431236 65.0539155,88.0461948 L65.007433,88.0469619 C65.0068193,88.0267121 65.0075864,88.0067691 65.0069728,87.9865193 C65.0069728,87.9865193 62.5167079,88.1406939 59.3374898,88.2543689 C56.3196564,88.3625212 52.681903,88.4355432 49.9627541,88.3074479 C45.8637043,88.1152282 39.8011911,86.9379787 35.9699909,85.4707888 L35.9149175,85.4286017 C36.728131,84.3605783 37.4772201,83.3391908 38.1451566,82.3760982 L38.1746108,82.297707 Z M51.1255834,72.59652 L51.2578207,72.6540479 L55.2467239,66.1125963 L55.6221122,57.4855691 C54.7593481,62.4392524 53.3446237,67.2946015 51.4043249,71.9437709 C51.3133542,72.1616096 51.2210029,72.3792949 51.1255834,72.59652 L51.1255834,72.59652 Z" id="Fill-111" fill="#FFFFFF"></path>
                        <path d="M55.6221736,57.4855231 L55.2467853,66.1125503 L51.2578821,72.6540018 L51.1254913,72.596474 C51.2210642,72.3792489 51.3134156,72.1615636 51.4043863,71.9437249 C53.3445316,67.2945555 54.7594095,62.4392064 55.6221736,57.4855231" id="Fill-112" fill="#094193"></path>
                        <path d="M57.2354995,29.0068526 C57.3634414,29.5534438 57.3382825,30.0882225 56.9171788,31.4176524 C56.496075,32.7470822 55.1249183,33.8025262 53.8777149,34.4278154 C52.9804341,34.8783734 51.3078316,35.2999373 49.9791687,35.2620457 C49.460191,35.248239 48.9944456,35.1632512 48.6466707,34.9842246 C48.0763014,34.6875344 46.7902859,33.39707 47.4341374,31.8068473 C47.8217983,30.8505046 49.2820848,29.5259838 48.3409295,29.1016585 C47.3996207,28.6774866 46.3297564,28.6178111 45.3022326,28.7098556 C44.7353917,28.7612472 44.1056537,28.8328885 43.5699545,28.7011114 C43.287838,28.6303905 43.0310338,28.5039827 42.8237802,28.286144 C42.4091195,27.8504665 42.3523588,27.1731722 42.496255,26.589303 C42.662242,25.9094007 43.8615823,25.0635115 43.1942594,24.8556442 C41.0100427,24.1780431 42.1472529,22.9093626 42.3833471,22.4833498 C42.8875977,21.5716487 45.5311167,23.0982073 46.0322992,23.4436811 C46.8004108,23.9726303 46.5896288,23.7975923 47.1408222,24.0579249 C47.6924757,24.3170303 48.160829,24.2507582 48.6489718,23.8871823 C48.5527853,23.566714 49.0005819,23.7636893 49.0478315,23.4326358 C49.1122626,22.9567655 49.7373984,22.7407677 50.1850417,22.9131978 C50.6328383,23.0840938 51.2162472,23.1922461 51.5914821,23.4918511 C52.5324841,24.242014 53.8189598,25.3597415 54.1319112,26.9077771 C55.4415515,29.4896262 56.8116344,27.1981776 57.2354995,29.0068526" id="Fill-113" fill="#04307E"></path>
                        <path d="M45.0731491,42.5237917 C45.0731491,42.5237917 45.0746832,42.5239451 45.0733025,42.5222576 C45.0510584,42.2290958 45.0156213,41.7490835 44.9720535,41.181629 L45.021911,41.178254 C47.666964,41.5137564 49.355521,41.177487 51.9042341,40.5204424 L51.9419724,40.5017267 C52.1883449,40.9884889 52.4598763,41.4967281 52.7683789,42.0448533 L52.7585608,42.0499158 C50.2831765,42.6877844 47.8522804,43.0947746 45.289147,42.8106638 C45.2144375,42.8033003 45.1381939,42.7942492 45.0621038,42.7850448 C45.1283758,42.7729256 45.0528993,42.5894501 45.0731491,42.5237917" id="Fill-114" fill="#FFC53D"></path>
                        <path d="M51.9420337,40.5017881 L51.9042955,40.5205038 C49.3555824,41.177395 47.6670254,41.5138177 45.0219724,41.178162 L44.9719615,41.1816904 C44.8595138,39.6772225 44.6996631,37.5585107 44.5959596,36.6794855 C44.7981507,36.0207534 45.8299699,36.1253774 45.7695274,36.0113956 C45.732863,35.9422088 44.1625832,34.9886274 43.8672737,34.7835215 L43.8510125,34.8033111 C43.8284616,34.7850556 43.8059107,34.7669535 43.7816723,34.7500786 C43.431136,34.5029391 42.9821121,34.4461783 42.5620822,34.3404805 C41.9829687,34.1958172 41.4302413,33.9474503 40.9434791,33.6113344 C40.8420767,33.5421476 40.7376062,33.4585404 40.7142882,33.3445586 C40.7015554,33.2827354 40.7133678,33.2224462 40.73868,33.1652252 C40.7603105,33.1121462 40.7942136,33.0621353 40.8262757,33.0135051 C41.6913409,31.7184386 42.5579402,30.4236788 43.4231588,29.1284588 L43.5699699,28.7010654 C44.105669,28.8329959 44.7352536,28.7613545 45.302248,28.709963 C46.3297718,28.6177651 47.399636,28.6774406 48.3407914,29.1016125 C49.2821001,29.5259378 47.8218136,30.8504586 47.4341527,31.8068013 C46.7903012,33.397024 48.0763168,34.6876418 48.646686,34.9841786 C48.994461,35.1632052 49.4602063,35.248193 49.9791841,35.2621531 L49.9750421,35.4129527 C50.5934279,37.4442221 51.1219169,38.8669238 51.9420337,40.5017881" id="Fill-115" fill="#F9C4B5"></path>
                        <path d="M45.2163704,43.046037 L45.2487394,43.0592301 C44.549968,44.8761892 43.10042,46.3826513 41.9151932,49.4284049 C40.6491207,52.6872416 39.3902583,56.7008434 38.3137975,60.1302693 L38.2914,60.1230592 C35.8512994,52.8225471 36.3886861,44.4435799 36.2296025,39.5208848 L36.2047504,39.482533 C37.7668996,38.4823157 39.4026843,37.4242638 41.17132,36.2741674 L41.232683,36.3680528 C41.5566798,37.3181058 41.8682505,39.9122275 41.979471,40.90953 C42.0925324,41.9056053 42.4829546,43.3737156 43.1163744,44.1505714 C43.7514817,44.9262 44.2767491,43.7606094 45.2163704,43.046037" id="Fill-116" fill="#094193"></path>
                        <path d="M45.7694813,36.0114723 C45.8300773,36.1253007 44.7981047,36.0208301 44.596067,36.6794088 C44.580266,36.5648133 44.5683002,36.4707745 44.5563344,36.4029683 C44.4570797,35.8226276 44.3217743,35.1823044 43.8509665,34.8032344 L43.8673811,34.7834448 C44.1625372,34.9887041 45.7329703,35.9422855 45.7694813,36.0114723" id="Fill-117" fill="#04307E"></path>
                        <path d="M40.0379603,33.7289366 L41.2264087,36.238991 C41.2079998,36.25065 41.1895909,36.2626158 41.1713354,36.2742747 C39.4025463,37.4243712 37.7669149,38.4822697 36.2047658,39.4824869 C30.4624142,43.1590524 25.7086209,46.0621369 18.9838474,49.9442685 L18.9560806,49.9442685 L18.9553136,49.8204686 C18.9553136,49.8204686 20.5114798,42.757278 18.9899837,43.0021164 C18.0810439,43.1486207 15.5189843,50.977315 14.7320036,48.0670203 C14.2688662,46.3540715 13.6173443,44.8733818 13.2325981,44.0721341 C8.78807448,32.8247525 2.22591293,17.9460606 0.175927783,12.9570935 L0.0627130082,12.6237389 C7.07481891,8.92247484 23.4486208,0.587382185 24.9098278,0.190056619 L25.0264175,0.143727538 C26.4593975,2.54701028 34.2434502,20.6923626 38.016509,28.9673195 C37.8502152,29.1173521 37.6800862,29.3135604 37.5068891,29.5616204 C37.4881734,29.5887735 37.4712986,29.614546 37.4541169,29.6403185 C36.6869257,30.8404258 37.6877566,31.1157923 37.6510922,33.1444538 C37.6334503,34.070882 37.4209809,35.1780244 38.520146,35.1593086 C39.0388169,35.1501042 39.6364928,34.3887425 40.0379603,33.7289366" id="Fill-118" fill="#FFFFFF"></path>
                        <path d="M30.3686515,126.079088 L30.3490153,126.113758 L27.1199397,126.386823 C27.1199397,126.386823 26.6503592,126.023401 27.7544334,124.512797 L27.7639446,124.509422 C27.7891035,124.572626 27.8470915,124.6165 27.901091,124.655466 C28.3946031,125.000172 29.8324921,125.767977 30.3686515,126.079088" id="Fill-119" fill="#094193"></path>
                        <path d="M38.016555,28.9673042 C39.8258437,27.3338205 41.209273,31.1479926 40.4411614,32.9658721 C40.4259741,33.0011558 40.4089458,33.0408884 40.3883892,33.0832289 C40.3076968,33.2558124 40.1860447,33.4854635 40.0380064,33.7289213 C39.6365388,34.3887272 39.038863,35.1500888 38.520192,35.1592933 C37.4210269,35.178009 37.6334964,34.0710201 37.6511382,33.1444385 C37.6876492,31.115777 36.6869717,30.8404104 37.4541629,29.6403031 C37.4711912,29.6145307 37.4882194,29.5887582 37.5069351,29.561605 C37.6801323,29.313545 37.8502612,29.1174902 38.016555,28.9673042" id="Fill-120" fill="#F9C4B5"></path>
                        <path d="M19.5063688,52.7396303 C19.5573001,52.676273 19.6051633,52.6124554 19.6544071,52.5487913 L19.8326667,52.5823875 C20.2450262,52.9451964 20.656005,53.3078519 21.0622282,53.6729618 L20.8410146,53.919948 C19.331791,56.0559948 14.9842209,60.0858578 14.9721017,60.0843238 L14.9636643,60.0910737 C14.7441381,59.8454682 14.5249187,59.5967946 14.3072334,59.3499618 L14.3293241,59.3202007 C14.8835856,58.5982648 15.4663809,57.8566927 16.0591477,57.108524 C17.2178349,55.6462432 18.4148741,54.1591104 19.5063688,52.7396303" id="Fill-121" fill="#FFC53D"></path>
                        <path d="M13.2325368,44.0721035 C13.6174363,44.8735045 14.2689582,46.3540408 14.7319422,48.0669896 C15.518923,50.9772843 18.0809825,43.14859 18.9899223,43.0020858 C20.5114184,42.7572473 18.9554056,49.8204379 18.9554056,49.8204379 L18.9561726,49.9440844 L18.9610817,51.4695691 L19.5062921,52.7396303 C18.4147974,54.1591104 17.2179116,55.6462432 16.0592244,57.108524 L15.9533732,57.0250703 C13.6898447,54.7713599 10.3690314,52.3174527 9.79344623,50.2897116 C9.56502238,49.4853958 9.45947798,48.7637667 9.62393088,47.9427295 C9.78531563,47.1448568 11.4387422,43.904429 12.9099207,43.4342348 C12.9099207,43.4342348 13.0369421,43.6657268 13.2325368,44.0721035" id="Fill-122" fill="#F9C4B5"></path>
                    </g>
                    <path d="M317.016268,119.667481 C317.019797,119.701998 317.022251,119.73314 317.025166,119.761213" id="Stroke-123" stroke="#094193" stroke-width="0.5" stroke-linecap="round" stroke-linejoin="round"></path>
                    <path d="M315.366247,106.272195 C314.501029,107.567261 313.634429,108.862174 312.769364,110.157087 C312.737302,110.205871 312.703552,110.255882 312.681768,110.308808 C312.656456,110.366182 312.644644,110.426471 312.657377,110.488141 C312.680695,110.602276 312.785165,110.685883 312.886567,110.75507 C313.37333,111.091186 313.926057,111.3394 314.505324,111.484216 C314.9252,111.589914 315.374224,111.646521 315.724761,111.893814 C315.748999,111.910689 315.771703,111.928791 315.794101,111.946893 C316.264909,112.325963 316.400214,112.966287 316.499469,113.546627 C316.511435,113.614434 316.5234,113.708626 316.539201,113.823221 C316.642751,114.702247 316.802602,116.820958 316.915203,118.325273 C316.958771,118.892881 316.994208,119.372739 317.016452,119.666055" id="Stroke-124" stroke="#094193" stroke-width="0.5" stroke-linecap="round" stroke-linejoin="round"></path>
                    <path d="M315.810439,111.92715 C316.105748,112.132409 317.676028,113.085991 317.712539,113.155177 C317.773135,113.269006 316.741162,113.164382 316.539125,113.823114" id="Stroke-125" stroke="#094193" stroke-width="0.5"></path>
                    <path d="M321.918115,112.556658 C322.536501,114.587927 323.065143,116.010629 323.885107,117.645493 C324.131479,118.132255 324.403011,118.640341 324.711513,119.188466 C324.749558,119.258113 324.788984,119.329141 324.829944,119.400476" id="Stroke-126" stroke="#094193" stroke-width="0.5" stroke-linecap="round" stroke-linejoin="round"></path>
                    <path d="M324.701634,119.193636 C322.226249,119.831505 319.795507,120.238495 317.232373,119.954384 C317.15751,119.947021 317.081267,119.93797 317.005177,119.928765 C317.071602,119.916646 316.996126,119.733171 317.016222,119.667512 C317.016222,119.667512 317.017756,119.667666 317.016376,119.665978 C317.020978,119.654166 317.028034,119.645728 317.040767,119.644194" id="Stroke-127" stroke="#094193" stroke-width="0.5" stroke-linecap="round" stroke-linejoin="round"></path>
                    <path d="M292.784164,131.063699 C291.274941,133.199746 286.927371,137.229456 286.915251,137.228075" id="Stroke-128" stroke="#094193" stroke-width="0.5" stroke-linecap="round" stroke-linejoin="round"></path>
                    <path d="M323.847399,117.664209 C321.298686,118.3211 319.610129,118.657523 316.965076,118.321867" id="Stroke-129" stroke="#094193" stroke-width="0.5" stroke-linecap="round" stroke-linejoin="round"></path>
                    <path d="M315.942569,159.036002 C319.328427,156.994147 321.400349,153.53496 322.959737,149.992933 C322.997475,149.90948 323.03414,149.824032 323.068656,149.740118 C323.164076,149.522893 323.256581,149.305207 323.347551,149.087369 C325.287697,144.438353 326.702575,139.58285 327.565339,134.629167 L327.189797,143.256347 L323.200894,149.797646" id="Stroke-130" stroke="#094193" stroke-width="0.5" stroke-linecap="round" stroke-linejoin="round"></path>
                    <path d="M317.209684,120.157082 C317.203241,120.171809 317.198332,120.188223 317.191889,120.202951 C316.493118,122.01991 315.04357,123.526372 313.858343,126.572125 C312.592117,129.830962 311.333408,133.844564 310.256947,137.27399 C309.500341,139.680494 308.835319,141.797979 308.320023,143.165607" id="Stroke-131" stroke="#094193" stroke-width="0.5" stroke-linecap="round" stroke-linejoin="round"></path>
                    <path d="M308.196837,143.200415 C302.471821,139.671888 297.943536,135.229359 293.005347,130.81659 C292.599124,130.451634 292.188145,130.088825 291.775786,129.726016" id="Stroke-132" stroke="#094193" stroke-width="0.5" stroke-linecap="round" stroke-linejoin="round"></path>
                    <path d="M316.096574,158.949265 C314.463398,160.155816 312.109819,160.160878 310.117668,159.441397 C309.969477,159.389698 309.823126,159.332017 309.67923,159.270194 C307.604853,158.386106 305.929489,156.83623 304.321931,155.301847 C298.254816,149.510865 292.44205,143.481335 286.906799,137.234733 C286.687272,136.989281 286.468053,136.740454 286.250368,136.493621" id="Stroke-133" stroke="#094193" stroke-width="0.5" stroke-linecap="round" stroke-linejoin="round"></path>
                    <path d="M291.597511,129.692466 C291.548267,129.75613 291.500404,129.819947 291.449473,129.883305 C290.357978,131.302785 289.160939,132.789918 288.002251,134.252352 C287.409485,135.00052 286.826689,135.742093 286.272428,136.463875" id="Stroke-134" stroke="#094193" stroke-width="0.5" stroke-linecap="round" stroke-linejoin="round"></path>
                    <path d="M287.896554,134.168699 C285.633025,131.915142 282.312212,129.461081 281.736627,127.433493 C281.508049,126.629178 281.402658,125.907395 281.566958,125.086511 C281.728496,124.288639 283.381769,121.048211 284.853101,120.577863 C284.853101,120.577863 284.979969,120.809355 285.175717,121.215732 C285.560463,122.017133 286.212139,123.497669 286.675123,125.210618 C287.462103,128.120913 290.024163,120.292372 290.933103,120.145868 C292.454599,119.900876 290.898433,126.964066 290.898433,126.964066 L290.8992,127.087866 L290.904109,128.613198 L291.449473,129.883259 L291.489665,129.97469" id="Stroke-135" stroke="#094193" stroke-width="0.5" stroke-linecap="round" stroke-linejoin="round"></path>
                    <path d="M308.172706,116.664651 C308.33179,121.587346 307.794403,129.966314 310.234504,137.266826" id="Stroke-136" stroke="#094193" stroke-width="0.5" stroke-linecap="round" stroke-linejoin="round"></path>
                    <path d="M311.981079,110.872626 C311.579612,111.532432 310.981936,112.293794 310.463265,112.302998 C309.3641,112.321714 309.576569,111.214572 309.594211,110.288144 C309.630876,108.259482 308.630045,107.984116 309.397236,106.784008 C309.414418,106.758236 309.431292,106.732463 309.450008,106.70531 C309.623205,106.45725 309.793334,106.261042 309.959628,106.111009 C311.768917,104.477372 313.152499,108.291698 312.384234,110.109577 C312.369047,110.144861 312.352019,110.184593 312.331462,110.226934 C312.25077,110.399517 312.129118,110.629169 311.981079,110.872626 Z" id="Stroke-137" stroke="#094193" stroke-width="0.5" stroke-linecap="round" stroke-linejoin="round"></path>
                    <path d="M313.175833,113.511712 C313.499676,114.461765 313.8114,117.05604 313.922621,118.053189 C314.035529,119.049418 314.425951,120.517375 315.059371,121.29423 C315.694631,122.069859 316.219899,120.904268 317.15952,120.189696" id="Stroke-138" stroke="#094193" stroke-width="0.5" stroke-linecap="round" stroke-linejoin="round"></path>
                    <path d="M321.922318,112.405797 C323.250981,112.443688 324.92343,112.022124 325.820865,111.571566 C327.068068,110.946124 328.439071,109.89068 328.860328,108.56125 C329.281432,107.23182 329.306591,106.697195 329.178649,106.150604 C328.754784,104.341929 327.384548,106.633377 326.074908,104.051528 C325.76211,102.503339 324.475634,101.385765 323.534632,100.635449 C323.159244,100.335844 322.575988,100.227691 322.128191,100.056949 C321.680548,99.8845188 321.055412,100.100363 320.990981,100.576387 C320.943732,100.90744 320.495935,100.710465 320.592122,101.030933 C320.103825,101.394509 319.635625,101.460628 319.083972,101.201676 C318.532625,100.941343 318.743407,101.116228 317.975295,100.587432 C317.474266,100.241958 314.830594,98.7153998 314.326343,99.6269475 C314.090249,100.053114 312.953192,101.321794 315.137256,101.999395 C315.804732,102.207263 314.605392,103.052998 314.439405,103.733054 C314.295508,104.31677 314.352116,104.994218 314.766776,105.429742 C314.974183,105.64758 315.230988,105.774142 315.513104,105.844709 C316.048803,105.97664 316.678388,105.904998 317.245382,105.853607 C318.272906,105.761409 319.34277,105.821084 320.283926,106.24541 C321.225234,106.669582 319.764948,107.994102 319.377287,108.950598 C318.733436,110.540821 320.019451,111.831285 320.589667,112.127822 C320.937595,112.306849 321.403341,112.391837 321.922318,112.405797 Z" id="Stroke-139" stroke="#094193" stroke-width="0.5" stroke-linecap="round" stroke-linejoin="round"></path>
                    <path d="M324.852035,119.409358 C328.117468,121.785487 330.587483,125.234856 331.783448,129.093056 C332.47731,131.332653 337.929262,155.286783 336.997004,165.189854" id="Stroke-140" stroke="#094193" stroke-width="0.5" stroke-linecap="round" stroke-linejoin="round"></path>
                    <path d="M307.913095,162.614417 C311.744295,164.081607 317.806808,165.258857 321.905858,165.451076 C324.625007,165.579172 328.26276,165.506303 331.280593,165.398151 C334.459812,165.284322 336.950076,165.130148 336.950076,165.130148 C336.95069,165.150397 336.949923,165.17034 336.950537,165.19059 C337.015121,172.254088 336.805873,175.356142 336.190402,178.482281 C336.187641,178.494247 336.18626,178.504832 336.183192,178.516951" id="Stroke-141" stroke="#094193" stroke-width="0.5" stroke-linecap="round" stroke-linejoin="round"></path>
                    <path d="M272.119093,90.1007219 C274.168925,95.089689 280.73124,109.968534 285.17561,121.215763 C285.197087,121.269302 285.217183,121.321154 285.23866,121.374693" id="Stroke-142" stroke="#094193" stroke-width="0.642909091" stroke-linecap="round" stroke-linejoin="round"></path>
                    <path d="M272.005832,89.767398 C279.017938,86.0661339 295.39174,77.7310412 296.852947,77.3337157" id="Stroke-143" stroke="#094193" stroke-width="0.642909091" stroke-linecap="round" stroke-linejoin="round"></path>
                    <path d="M296.937413,77.2341235 C296.947691,77.2506915 296.959504,77.2692538 296.969629,77.2875093 C298.402609,79.6907921 306.186508,97.835991 309.95972,106.110948 C309.968004,106.130584 309.978129,106.15022 309.98672,106.169856" id="Stroke-144" stroke="#094193" stroke-width="0.642909091" stroke-linecap="round" stroke-linejoin="round"></path>
                    <path d="M311.979883,110.869328 L311.98111,110.87255 L313.169558,113.382757 C313.151149,113.394416 313.132741,113.406229 313.114485,113.417888 C311.345696,114.567984 309.710065,115.626036 308.147915,116.6261 C302.405564,120.302665 297.651771,123.20575 290.926997,127.088035" id="Stroke-145" stroke="#094193" stroke-width="0.642909091" stroke-linecap="round" stroke-linejoin="round"></path>
                    <path d="M310.088214,159.519742 C309.420278,160.482835 308.671342,161.504375 307.857975,162.572245 C300.533225,172.185837 287.971447,185.565583 282.344305,194.494823" id="Stroke-146" stroke="#094193" stroke-width="0.5" stroke-linecap="round" stroke-linejoin="round"></path>
                    <path d="M282.360842,194.473592 C282.355319,194.480649 282.351331,194.489546 282.345655,194.49645 C279.983638,198.097232 276.022195,202.684424 279.577108,209.212529 C284.144051,217.594718 324.502511,230.084701 331.53456,236.540705" id="Stroke-147" stroke="#094193" stroke-width="0.5" stroke-linecap="round" stroke-linejoin="round"></path>
                    <path d="M331.505044,165.783234 C331.473442,166.139447 331.415147,166.498574 331.333534,166.859695 C330.223477,171.709828 324.661533,176.906509 319.843462,181.408561 C317.743619,183.367422 315.785986,185.1965 314.396573,186.807433 C312.325571,189.210102 310.02768,191.261161 307.714907,193.412548 C306.468931,194.570776 303.023397,198.175239 302.33291,198.730882 C301.38976,199.488255 300.550468,200.424808 299.80414,201.370872 C299.742163,201.450184 299.676351,201.548978 299.705039,201.645011 C299.706266,201.648233 299.707647,201.649921 299.707186,201.652989 C299.732192,201.716193 299.79018,201.760221 299.844179,201.799033 C300.337691,202.143893 301.77558,202.911544 302.31174,203.222808 C302.317569,203.224956 302.321865,203.228638 302.32616,203.230632" id="Stroke-148" stroke="#094193" stroke-width="0.5" stroke-linecap="round" stroke-linejoin="round"></path>
                    <path d="M338.760592,228.415473 C338.725462,228.385099 338.688951,228.354571 338.653974,228.325577 C327.721385,219.09305 320.326834,214.044407 302.292088,203.257402 L299.063166,203.530467 C299.063166,203.530467 298.593432,203.167045 299.697506,201.65644" id="Stroke-149" stroke="#094193" stroke-width="0.5" stroke-linecap="round" stroke-linejoin="round"></path>
                    <path d="M331.629381,236.534982 C331.868697,236.291525 332.130103,236.016925 332.406697,235.71778 C334.342393,233.620392 337.048503,230.32167 338.726628,228.623141" id="Stroke-150" stroke="#094193" stroke-width="0.5" stroke-linecap="round" stroke-linejoin="round"></path>
                    <path d="M332.874329,235.826071 C334.455961,237.137859 336.312039,238.505487 338.017317,239.881553 C338.685254,240.421548 339.330026,240.960468 339.927088,241.499696" id="Stroke-151" stroke="#094193" stroke-width="0.5" stroke-linecap="round" stroke-linejoin="round"></path>
                    <path d="M338.567636,228.426396 C338.626085,228.481316 338.68576,228.537923 338.749731,228.596372 C339.840459,229.594748 341.597436,230.926019 343.44707,232.257443 C344.088621,232.72012 344.741063,233.182644 345.381233,233.631361 C347.988701,235.460899 350.382779,237.05956 350.932899,237.4868 C352.375237,238.605754 352.109381,240.639785 352.109381,240.639785 C351.365815,243.662528 351.278066,244.21771 349.066082,249.461487 C347.66363,252.787362 346.682896,253.833755 346.002994,254.573026 C344.244636,256.479882 338.851747,256.941485 335.846647,256.19209 C335.045552,255.991586 334.921446,254.906074 335.655501,254.530226 C337.282081,253.703052 340.526804,252.495428 340.806466,251.744038 C342.620357,246.8712 341.491124,245.925442 339.963031,241.59981 C339.951373,241.567441 339.938486,241.533384 339.926981,241.499788 C339.895839,241.411118 339.865157,241.319227 339.832788,241.227336" id="Stroke-152" stroke="#094193" stroke-width="0.5" stroke-linecap="round" stroke-linejoin="round"></path>
                    <path d="M319.550638,190.32964 C319.550638,190.32964 320.030343,190.362162 320.41601,190.147085 C320.800142,189.9317 330.394251,185.410626 336.190448,178.482128 C336.215914,178.451139 336.24276,178.420458 336.268072,178.389469" id="Stroke-153" stroke="#094193" stroke-width="0.5" stroke-linecap="round" stroke-linejoin="round"></path>
                    <path d="M319.548843,190.395866 C319.550223,190.385281 319.548996,190.382059 319.548996,190.382059" id="Stroke-154" stroke="#094193" stroke-width="0.5" stroke-linecap="round" stroke-linejoin="round"></path>
                    <path d="M319.548996,190.382074 C319.549917,190.386677 319.549456,190.391432 319.548843,190.395881 L319.548689,190.397415 C319.54915,190.406773 319.548689,190.423648 319.548843,190.4485" id="Stroke-155" stroke="#094193" stroke-width="0.5" stroke-linecap="round" stroke-linejoin="round"></path>
                    <path d="M319.548996,190.382074 C319.54961,190.363512 319.550223,190.346637 319.550684,190.329609" id="Stroke-156" stroke="#094193" stroke-width="0.5" stroke-linecap="round" stroke-linejoin="round"></path>
                    <path d="M319.845625,181.377925 C319.844398,181.38851 319.843017,181.399249 319.843477,181.408607 C319.412555,186.060077 319.599559,185.722274 319.550622,190.329716" id="Stroke-157" stroke="#094193" stroke-width="0.5" stroke-linecap="round" stroke-linejoin="round"></path>
                    <path d="M338.28598,239.791441 C339.901668,237.397823 341.518584,235.006199 343.134272,232.612428" id="Stroke-158" stroke="#094193" stroke-width="0.5" stroke-linecap="round" stroke-linejoin="round"></path>
                    <path d="M339.885975,241.714129 C339.912054,241.677158 339.936753,241.638346 339.962985,241.59984 C341.569776,239.228313 343.669772,236.322467 345.180376,233.916423" id="Stroke-159" stroke="#094193" stroke-width="0.5" stroke-linecap="round" stroke-linejoin="round"></path>
                    <g transform="translate(280.840757, 88.342441)">
                        <line x1="0.0258645137" y1="7.66342836" x2="14.4253112" y2="0.0403001645" id="Fill-160" fill="#BCCBFE"></line>
                        <line x1="0.0258645137" y1="7.66342836" x2="14.4253112" y2="0.0403001645" id="Stroke-161" stroke="#094193" stroke-width="0.5" stroke-linecap="round"></line>
                    </g>
                    <g transform="translate(283.908908, 96.473042)">
                        <line x1="0.00698004372" y1="7.49489482" x2="13.5594636" y2="0.0411285653" id="Fill-162" fill="#BCCBFE"></line>
                        <line x1="0.00698004372" y1="7.49489482" x2="13.5594636" y2="0.0411285653" id="Stroke-163" stroke="#094193" stroke-width="0.5" stroke-linecap="round"></line>
                    </g>
                    <g transform="translate(287.437282, 104.910457)">
                        <line x1="0.0360507753" y1="7.86657064" x2="13.7578963" y2="0.0739271005" id="Fill-164" fill="#BCCBFE"></line>
                        <line x1="0.0360507753" y1="7.86657064" x2="13.7578963" y2="0.0739271005" id="Stroke-165" stroke="#094193" stroke-width="0.5" stroke-linecap="round"></line>
                    </g>
                    <path d="M408.303627,83.8618054 C408.303627,83.8618054 441.646452,114.078798 412.471557,144.295638 C383.296508,174.51263 347.609309,153.673288 347.609309,153.673288" id="Stroke-166" stroke="#094193" stroke-width="0.756363636" stroke-linecap="square" stroke-dasharray="0.9204453771764581,1.840890754352916"></path>
                    <g transform="translate(94.603986, 95.859411)">
                        <path d="M83.3000873,133.574627 C82.5146406,135.107168 81.9807823,135.911024 81.3640839,136.926735 L81.2275512,136.85448 C79.2808093,136.774708 76.9198671,136.478632 74.7200027,136.441814 L74.4269943,136.328292 C74.7890361,135.384836 75.1265328,134.475129 75.4440864,133.662069 L75.4394842,133.577848 L75.4394842,133.576161 C78.0197992,133.454969 80.716704,133.36139 83.3031554,133.514798 L83.3000873,133.574627 Z" id="Fill-167" fill="#F9C4B5"></path>
                        <path d="M20.0624712,128.062739 C17.7658067,129.308409 16.3084349,130.504988 14.8236032,131.68009 L14.8143988,131.667817 C12.4687973,129.900409 11.8321559,129.550793 9.88372657,126.998091 C10.2365639,126.629913 10.5940035,126.261735 10.9591135,125.890489 C12.1573799,124.673967 13.4291286,123.435968 14.8205351,122.125867 L15.0767257,121.909562 C16.8347763,123.97903 18.3627155,125.9135 20.1407091,127.99524 L20.0624712,128.062739 Z" id="Fill-168" fill="#F9C4B5"></path>
                        <path d="M48.3477407,58.981707 L48.5134209,59.0984501 C48.455126,59.1690176 48.393763,59.2257784 48.3261103,59.2624428 C48.3799563,59.2609087 48.4321149,59.257994 48.4856541,59.2563065 C44.595392,65.947944 42.452135,72.0675248 41.1713354,78.0870838 L40.9979848,78.0487319 C40.1235618,78.8573431 38.7258655,79.6411023 37.8515959,80.4495601 L37.7043246,80.3927993 C35.4829832,75.2367714 32.796817,70.3033379 29.6979844,65.6810149 L29.9096868,65.5398799 C32.3473328,63.9935318 35.4262224,62.2755206 38.4606239,60.51747 C40.4639731,59.3575555 42.4492203,58.1795389 44.2149412,57.0257606 C44.9436271,56.5488166 45.6339611,56.0763213 46.2735172,55.6099623 L46.2735172,55.611343 C46.6064116,56.1208095 47.0775262,56.910705 47.5224081,57.6487487 C47.8275357,58.1534596 48.1191635,58.6334718 48.3477407,58.981707" id="Fill-169" fill="#FFC53D"></path>
                        <path d="M81.2275819,136.854465 L81.3641146,136.92672 C81.0402713,137.45751 80.6951043,138.047976 80.2779891,138.830354 L80.2670972,139.029938 C81.5865556,139.218475 83.7235228,139.649704 86.0246361,140.174358 L85.9753923,140.388975 C81.6017429,140.635961 77.0516748,140.319942 72.7823426,140.24784 C73.3821661,138.996035 73.9284504,137.630861 74.427025,136.328277 L74.7200334,136.441952 C76.9198978,136.478617 79.28084,136.774693 81.2275819,136.854465" id="Fill-170" fill="#FFC53D"></path>
                        <path d="M71.4508571,22.9662768 L71.4554593,22.9892879 C71.3773749,23.2193993 71.3020517,23.4510447 71.2314843,23.6826901 L71.1379057,23.6533892 C70.8663743,23.6029181 70.4843895,23.5783729 70.2128581,23.5277484 L70.162387,23.4495106 C70.5503547,23.1902518 70.9906344,23.0537191 71.4508571,22.9662768" id="Fill-171" fill="#094193"></path>
                        <path d="M70.6869642,19.2169348 C72.2333123,17.9284647 73.8088079,16.2026298 73.5678046,14.2035759 L73.629321,14.185167 C74.1708497,15.9125361 74.5848967,17.6889956 75.1325617,19.4148305 C75.3120485,19.9871941 75.4947569,20.5992903 75.3319915,21.1761027 C75.0635283,22.1272295 73.9835391,22.5888328 73.0064864,22.7453085 C72.4939517,22.8266145 71.9602469,22.8665005 71.4507804,22.9662154 C70.9905577,23.0538111 70.550278,23.1901905 70.1623103,23.4496026 C70.1592422,23.4511367 70.1577081,23.4525174 70.1544865,23.4540514 L69.6514632,23.4663241 C69.6453269,23.3374617 69.628452,23.2101334 69.5991512,23.0828052 C69.4902318,22.5888328 69.1912405,22.1424169 69.1421501,21.6392401 C69.0470374,20.6453125 69.9182389,19.8566443 70.6869642,19.2169348" id="Fill-172" fill="#F9C4B5"></path>
                        <path d="M20.7956519,128.75608 C20.5733644,128.49989 20.3553723,128.246921 20.1406017,127.995179 C18.3627615,125.913592 16.8348223,123.978969 15.0767717,121.909501 C14.8159789,121.601152 14.5488963,121.289735 14.2742968,120.973868 L14.4261703,120.841785 C22.7715412,112.944517 31.0372937,104.757156 39.0467021,96.5205509 L39.0112649,96.483733 C39.4624366,90.1312796 39.878171,84.1606576 41.1712433,78.0870991 C42.4521964,72.0675401 44.5954533,65.9479593 48.4857155,59.2563218 C50.6917161,59.1658114 52.8656546,59.0984655 55.0300818,59.0522898 L55.0333033,59.1690329 C51.3881864,68.9042763 54.9427929,74.1552635 59.5571387,78.0887866 L59.4390149,78.3985165 C57.8942008,84.3553318 56.2099393,89.1370453 54.6649718,95.0924799 C54.1295794,97.1602604 53.9240133,99.9693061 52.5295386,101.584534 L52.5418112,101.595273 C43.2483816,112.780218 33.6268132,121.110248 20.8340038,128.75608 L20.7956519,128.75608 Z" id="Fill-173" fill="#094193"></path>
                        <path d="M11.6295506,133.967442 C13.0886098,134.116248 15.233094,134.533363 17.2580737,134.975176 L17.2151196,135.166936 C16.5431945,135.027335 6.83403041,134.623873 3.48360943,134.315677 C5.61444036,131.667863 7.63481785,129.348341 9.88377259,126.997984 C11.8320485,129.550839 12.4688433,129.900455 14.8144448,131.667863 L14.8234958,131.680136 C13.852426,132.448707 12.8690836,133.208075 11.6295506,133.967442" id="Fill-174" fill="#FFC53D"></path>
                        <path d="M48.5134209,59.0984041 L48.3477407,58.9816609 C48.1191635,58.6335792 47.8275357,58.1534136 47.5224081,57.6487027 L49.1469941,57.5933226 C49.6026145,55.3675324 49.9368896,52.5034133 50.1579499,49.6744246 L50.3771693,49.6914529 L52.5909937,39.7796374 L52.544818,39.7399048 C51.7549225,40.6250664 51.0168788,41.6759081 50.2990848,42.7942492 C48.5287617,45.5479148 46.8842327,48.7081104 44.9051218,50.7883169 C44.2456227,51.4801849 43.581368,52.1918426 43.1808209,53.0587487 C42.8787614,53.7122649 41.8616693,54.8674237 44.2011346,57.004391 L44.2147878,57.0257146 C42.4492203,58.1794928 40.4639731,59.3575095 38.4606239,60.517424 L38.4330105,60.4712483 C37.1979263,58.813066 36.2253224,57.5488344 35.193043,55.7556535 C34.524186,54.5928242 33.8783402,53.2965304 34.0793041,51.968021 C34.2327117,50.9584458 34.8555463,50.0918466 35.4538358,49.2634458 C38.7181952,44.7348548 42.5520033,38.3009419 45.3730149,33.4854788 L45.0494783,33.428718 C46.2706025,32.6923618 47.804678,32.2996384 50.3696523,32.5727039 C55.1298887,33.0774147 62.4257986,34.9766002 67.3902205,28.3202465 L67.6540815,28.5196763 C68.0360663,28.8709796 68.4547155,28.8218892 68.9687842,28.8863203 C70.2788847,29.0533812 71.2806361,27.9689432 71.3864873,27.4611642 L71.4139472,27.2740069 C76.722002,28.0562321 82.7432485,28.7542364 87.971378,29.5458194 L88.0065083,29.4691156 C90.5593634,27.6897414 92.866613,25.5865238 95.1677263,23.4909766 C98.9016662,20.0851755 102.371745,17.4820027 106.064112,14.2006152 C107.951024,15.6349758 108.940503,16.8929177 109.537412,19.2247126 L109.555821,19.2475703 C109.25821,19.4976246 108.96827,19.7877183 108.684466,20.126749 C101.986539,28.1083906 94.3638708,33.4946833 88.2565626,39.7274788 L88.2076256,39.79191 C83.1697215,40.4132106 78.4739163,40.780008 73.4881708,41.3614227 L73.5019774,41.4793931 C74.7566978,43.4723106 74.6003755,47.2860224 71.6396097,48.4503857 L71.6779616,48.5454984 C71.0259795,51.164012 67.1952395,55.4471509 68.0989634,59.0401092 L68.0974293,59.0401092 C63.6685532,58.9572691 59.3700735,58.9603373 55.0300204,59.0522284 C52.8655932,59.0984041 50.6916548,59.16575 48.4856541,59.2562605 C48.4321149,59.2579479 48.3799563,59.2610161 48.3261103,59.2623968 C48.393763,59.2257324 48.455126,59.1689716 48.5134209,59.0984041" id="Fill-175" fill="#FFFFFF"></path>
                        <path d="M117.488556,3.34239777 C119.202119,1.88042378 124.273619,-1.84277757 123.440769,1.5091775 C122.155214,2.80700541 120.843426,4.44232994 119.717415,6.09606337 C119.102404,6.99963387 118.890701,8.53984571 118.987348,9.62888594 C119.436679,14.6746138 120.127013,15.0980187 114.645914,17.0064086 C113.159242,17.5249262 111.876908,17.8286731 110.720215,18.45611 C110.108119,16.1166448 109.086271,14.8646858 107.136614,13.4043993 L107.119586,13.3905926 C109.565056,10.5525528 111.692819,8.49535752 114.31302,6.26020946 C115.368464,5.3595537 116.432959,4.24121263 117.488556,3.34239777" id="Fill-176" fill="#F9C4B5"></path>
                        <path d="M107.078274,13.4380876 C107.09208,13.4227468 107.105887,13.405872 107.119694,13.3905312 L107.136568,13.4043379 C109.086378,14.8647778 110.108073,16.1165835 110.720169,18.4560487 C110.318241,18.6723533 109.93012,18.930078 109.555806,19.2476316 L109.537397,19.2247739 C108.940641,16.8929791 107.951009,15.6348837 106.06425,14.2006765 C106.372599,13.9274577 106.682482,13.6482559 106.993899,13.3646053 L107.078274,13.4380876 Z" id="Fill-177" fill="#FFC53D"></path>
                        <path d="M68.2262916,59.253315 C77.5364427,65.9894408 100.194892,84.0761914 98.7895253,90.1986869 C98.0333795,93.4954153 97.6405027,94.7180735 96.8596583,98.2478279 L96.8398687,98.2986058 C95.6816417,104.147882 87.6001317,127.805015 85.4984482,133.385982 L85.4600963,133.708137 C84.7527341,133.620695 84.0317186,133.557798 83.3030327,133.514844 C80.7167347,133.361436 78.0198299,133.454862 75.4395149,133.576054 L75.4395149,133.577741 C74.8887817,133.602133 74.3426508,133.6299 73.8057244,133.655979 L73.8057244,133.651377 C75.9011182,126.764912 81.8473484,109.933035 83.5070647,99.987623 L83.5670471,99.9983615 C83.5670471,99.9983615 84.743683,96.7875414 84.743683,95.6799388 C84.743683,94.5721829 87.4833885,93.6979132 86.4340809,93.8727978 C85.3849266,94.0476824 80.8546481,91.5778208 80.8546481,91.5778208 L80.8024895,91.6545246 C76.3400172,88.6598557 67.6815414,84.1620996 63.2267394,80.9159958 C62.0025472,80.0245445 60.7444518,79.0996503 59.5570773,78.0886946 C54.9427315,74.1553249 51.3881251,68.9041843 55.033242,59.1689409 L55.0300204,59.0521977 C59.3700735,58.9603066 63.6685532,58.9572385 68.0974293,59.0400785 L68.0989634,59.0400785 C68.1080144,59.0784304 68.1189064,59.1183164 68.1296449,59.1566683 L68.2262916,59.253315 Z" id="Fill-178" fill="#036DF3"></path>
                        <path d="M96.5728322,143.208591 C97.5254931,143.97118 96.9212207,145.635498 95.7659084,145.677072 C88.5097311,145.939398 79.7319042,146.405757 72.2193829,145.724475 C71.5980823,145.669248 71.1194507,145.138458 71.0780574,144.515776 C71.0643774,144.308523 72.1827185,141.49963 72.7718035,140.270989 C72.7747182,140.263319 72.7793205,140.255495 72.7823886,140.247825 C77.0517209,140.319926 81.6017889,140.635946 85.9754383,140.38896 L86.0245287,140.174343 C90.6068124,141.214292 95.8396975,142.62104 96.5728322,143.208591" id="Fill-179" fill="#094193"></path>
                        <path d="M86.4341576,93.8727825 C87.4834652,93.6978979 84.7436063,94.5723209 84.7436063,95.6799235 C84.7436063,96.787526 83.5671238,99.9983461 83.5671238,99.9983461 L83.5071414,99.9876076 C83.781741,98.3384764 83.9397507,96.8780365 83.9412848,95.6845257 C83.9428189,95.1123155 83.9274781,94.5232305 83.6973668,94.0001108 C83.5884474,93.7515905 82.9456698,93.2054596 81.9425378,92.4568308 C81.6050412,92.2037083 81.2229029,91.9367792 80.8025662,91.6545093 L80.8547248,91.5778055 C80.8547248,91.5778055 85.3848499,94.0476671 86.4341576,93.8727825" id="Fill-180" fill="#094193"></path>
                        <path d="M68.0667478,27.336904 C67.8472216,27.6836051 67.6218659,28.0117439 67.3902205,28.3202465 C62.4257986,34.9766002 55.1298887,33.0774147 50.3696523,32.5727039 C47.804678,32.2996384 46.2706025,32.6923618 45.0494783,33.428718 C42.7834953,34.7955793 41.5962743,37.3528833 36.900469,39.0603093 C32.8380836,40.5376241 20.6024505,36.8543087 24.7935448,28.2573494 C27.7572254,22.177808 32.5452286,27.1696898 37.0184394,20.3967463 C39.6831287,16.3621276 47.8398083,18.3792835 49.6178019,18.8565344 C54.0483655,20.045443 57.9386276,17.34547 60.091089,15.6118112 C62.982668,13.2817039 63.054923,12.5361432 65.4281379,11.3702458 C68.262956,9.97883926 71.1533078,10.623151 72.302177,11.4346769 C72.9096709,11.8642181 73.5756131,13.324658 73.6061412,14.0686847 L73.6047605,14.1070365 C73.6122775,14.1331158 73.6216353,14.1591951 73.6293057,14.1852744 L73.5677893,14.2036833 C73.8087925,16.2025837 72.233297,17.9284187 70.6869488,19.2168888 C69.9182236,19.8565983 69.0470221,20.6452665 69.1421347,21.6391941 C69.1912252,22.1425242 69.4902165,22.5889402 69.5991358,23.0829126 C69.6284367,23.2102408 69.6453115,23.3375691 69.6514478,23.4664314 C69.6790612,24.0018238 69.5317899,24.5478013 69.3062808,25.0373248 C68.9166256,25.8856686 68.5024252,26.6496382 68.0667478,27.336904" id="Fill-181" fill="#04307E"></path>
                        <path d="M71.4139932,27.2739763 L71.3863799,27.4611335 C71.2806821,27.9689125 70.2789307,29.0535039 68.9688302,28.8862897 C68.4547615,28.8218585 68.0359589,28.8709489 67.6539741,28.5196456 L67.3902665,28.3202158 C67.6217585,28.0118666 67.8472676,27.6835744 68.0667938,27.3368734 C68.4394208,27.6605633 68.8461042,27.6851085 69.3491276,27.675904 C69.7709983,27.6682337 70.1990054,27.4396564 70.4015034,27.0806827 L70.5796096,27.1495627 C70.8555897,27.1911362 71.1332574,27.2324028 71.4139932,27.2739763" id="Fill-182" fill="#FFC53D"></path>
                        <path d="M71.1378903,23.6534659 L71.2314689,23.6826134 C70.927722,24.6628876 70.6808892,25.6600367 70.4952661,26.6694584 L70.502783,26.813815 C70.4828401,26.9089276 70.4490904,26.997904 70.4015341,27.0807441 C70.1990361,27.4397178 69.771029,27.668295 69.3491582,27.6759654 C68.8461349,27.6850165 68.4394514,27.6604712 68.0666711,27.3369347 C68.5023485,26.6495155 68.9167023,25.8856993 69.3063575,25.0373555 C69.5317132,24.547832 69.6789845,24.0018545 69.6515245,23.4663087 L70.1545479,23.4540361 C70.157616,23.452502 70.1591501,23.4511214 70.1623717,23.4495873 L70.2128428,23.5278251 C70.4843741,23.5784496 70.866359,23.6029948 71.1378903,23.6534659" id="Fill-183" fill="#F9C4B5"></path>
                        <path d="M52.591009,39.7796987 L50.3771846,49.6913608 L50.1579652,49.674486 C50.3481906,47.229323 50.4525077,44.8083984 50.4770529,42.8463157 L50.2991002,42.7941572 C51.0168941,41.6758161 51.7549379,40.6251278 52.5448334,39.7398128 L52.591009,39.7796987 Z" id="Fill-184" fill="#094193"></path>
                        <path d="M17.2151503,135.166982 L17.2581044,134.975223 C19.9994974,135.573512 22.5199835,136.214756 22.8238839,136.292993 L22.8498098,136.292993 C24.2274096,136.621286 24.4897365,137.889966 23.4987237,139.074426 C22.509245,140.257198 18.9517238,140.531798 17.4145801,140.657438 C12.7479223,141.040957 8.06745783,141.229802 3.38699335,141.406067 C-1.92704434,141.607031 0.700980479,138.017294 1.10428894,137.346903 C1.92348528,136.282408 2.71046603,135.277589 3.48364011,134.31557 C6.8340611,134.623919 16.5432252,135.027381 17.2151503,135.166982" id="Fill-185" fill="#094193"></path>
                    </g>
                    <path d="M168.208685,109.966402 C168.216356,109.992481 168.22556,110.01856 168.233231,110.04464 C168.774759,111.772009 169.18896,113.548468 169.736625,115.274303 C169.916111,115.846513 170.098666,116.45861 169.936054,117.035422 C169.667591,117.986549 168.587602,118.448306 167.610549,118.604781 C167.098015,118.686087 166.564156,118.725973 166.054843,118.825688 C165.594621,118.91313 165.154341,119.049663 164.766373,119.308922 C164.763152,119.310456 164.761618,119.31199 164.758549,119.313524" id="Stroke-186" stroke="#094193" stroke-width="0.5" stroke-linecap="round" stroke-linejoin="round"></path>
                    <path d="M164.816783,119.38719 C165.088468,119.437815 165.470452,119.46236 165.74183,119.512831" id="Stroke-187" stroke="#094193" stroke-width="0.5" stroke-linecap="round" stroke-linejoin="round"></path>
                    <path d="M166.059476,118.848761 C165.981238,119.078872 165.906069,119.310517 165.835501,119.542163 C165.531754,120.522284 165.284768,121.519433 165.099145,122.528854" id="Stroke-188" stroke="#094193" stroke-width="0.5" stroke-linecap="round" stroke-linejoin="round"></path>
                    <path d="M168.210189,109.92805 C168.179661,109.184023 167.513718,107.723583 166.906224,107.294042 C165.757355,106.482516 162.867004,105.838205 160.032032,107.229611 C157.658971,108.395509 157.586716,109.141069 154.694983,111.47133 C152.542675,113.204835 148.652413,115.904808 144.221849,114.7159 C142.443856,114.238802 134.287176,112.221493 131.622487,116.256112 C127.149276,123.029055 122.361273,118.037173 119.397592,124.116715 C115.206345,132.713674 127.442131,136.396989 131.504363,134.919675 C136.200322,133.212249 137.387543,130.654945 139.653526,129.288083 C140.87465,128.551727 142.408726,128.159004 144.973546,128.432069 C149.733936,128.93678 157.029846,130.835966 161.994115,124.179612 C162.22576,123.871263 162.451269,123.54297 162.670795,123.196269 C163.106319,122.509004 163.520673,121.745034 163.910328,120.89669 C164.135684,120.40732 164.282955,119.861189 164.255495,119.325797 C164.249359,119.196934 164.232331,119.069606 164.203183,118.942278 C164.094264,118.448306 163.795273,118.00189 163.746029,117.498713 C163.650916,116.504632 164.522271,115.715964 165.290996,115.076408 C166.837344,113.787784 168.412687,112.061949 168.171837,110.063049" id="Stroke-189" stroke="#094193" stroke-width="0.5" stroke-linecap="round" stroke-linejoin="round"></path>
                    <path d="M165.106831,122.673165 C165.086888,122.768278 165.052985,122.857254 165.005582,122.940094 C164.803084,123.299068 164.374923,123.527645 163.953052,123.535315 C163.450029,123.54452 163.043499,123.519975 162.670719,123.196285 C162.65998,123.18708 162.649088,123.177876 162.638503,123.168518" id="Stroke-190" stroke="#094193" stroke-width="0.5" stroke-linecap="round" stroke-linejoin="round"></path>
                    <path d="M165.990412,123.320499 C165.884714,123.828431 164.88281,124.912869 163.572709,124.745655 C163.058794,124.681224 162.639991,124.730314 162.258006,124.379011" id="Stroke-191" stroke="#094193" stroke-width="0.5" stroke-linecap="round" stroke-linejoin="round"></path>
                    <path d="M165.183534,123.009051 C165.459668,123.050624 165.737182,123.091891 166.017918,123.133464 C171.325973,123.915689 177.347219,124.613694 182.575349,125.405277" id="Stroke-192" stroke="#094193" stroke-width="0.5" stroke-linecap="round" stroke-linejoin="round"></path>
                    <path d="M182.86061,135.586967 C188.967918,129.354018 196.590586,123.967879 203.28836,115.986084 C203.572317,115.647206 203.862104,115.357113 204.159868,115.107058 C204.534029,114.789505 204.922304,114.53178 205.324232,114.315475 C206.480925,113.688038 207.763258,113.384445 209.249931,112.865927 C214.73103,110.957384 214.040696,110.533979 213.591211,105.488405 C213.494565,104.399211 213.706267,102.858999 214.321431,101.955582 C215.447443,100.301695 216.759231,98.6663708 218.044786,97.3685428 C218.877636,94.0167412 213.806135,97.7397891 212.092573,99.2017631 C211.036976,100.100731 209.972481,101.219072 208.917037,102.119575 C206.296836,104.354723 204.168919,106.411918 201.723603,109.249958 C201.709796,109.265299 201.69599,109.282174 201.682183,109.297514 C201.671444,109.309787 201.662393,109.320525 201.651501,109.332798" id="Stroke-193" stroke="#094193" stroke-width="0.5" stroke-linecap="round" stroke-linejoin="round"></path>
                    <path d="M182.811612,135.651383 C177.773708,136.272683 173.077902,136.639327 168.092157,137.220742 C167.684093,137.268298 167.272961,137.317389 166.860294,137.368013" id="Stroke-194" stroke="#094193" stroke-width="0.5" stroke-linecap="round" stroke-linejoin="round"></path>
                    <path d="M168.105918,137.338866 C169.360791,139.33163 169.204316,143.145495 166.24355,144.309705 C166.157642,144.343455 166.068665,144.37567 165.978155,144.404971" id="Stroke-195" stroke="#094193" stroke-width="0.5" stroke-linecap="round" stroke-linejoin="round"></path>
                    <path d="M166.281948,144.40491 C165.629966,147.023423 161.799226,151.306562 162.70295,154.899521 C162.712001,154.937872 162.722893,154.977758 162.733631,155.01611" id="Stroke-196" stroke="#094193" stroke-width="0.5" stroke-linecap="round" stroke-linejoin="round"></path>
                    <path d="M162.701446,154.899536 C158.27257,154.816696 153.973937,154.819611 149.634037,154.911655 C147.46961,154.957831 145.295672,155.025177 143.089671,155.115687 C143.036132,155.117375 142.983973,155.120289 142.930127,155.121823 C142.99778,155.085159 143.059143,155.028398 143.117438,154.957831 C143.372094,154.649328 143.559252,154.058863 143.743341,153.534209" id="Stroke-197" stroke="#094193" stroke-width="0.5" stroke-linecap="round" stroke-linejoin="round"></path>
                    <path d="M162.830278,155.112726 C172.140429,161.848852 194.798878,179.935603 193.393511,186.058098 C192.637366,189.354827 192.244489,190.577485 191.463644,194.107239" id="Stroke-198" stroke="#094193" stroke-width="0.5" stroke-linecap="round" stroke-linejoin="round"></path>
                    <path d="M191.443793,194.15794 C190.285566,200.00737 182.20421,223.664503 180.102373,229.24547" id="Stroke-199" stroke="#094193" stroke-width="0.5" stroke-linecap="round" stroke-linejoin="round"></path>
                    <path d="M149.637228,155.028383 C145.992111,164.763626 149.546718,170.014614 154.161063,173.948137 C155.348438,174.959092 156.606533,175.883987 157.830726,176.775438 C162.285528,180.021542 170.944003,184.519298 175.406476,187.513967 C175.826966,187.796237 176.208951,188.063166 176.546447,188.316135 C177.549579,189.064917 178.19251,189.611048 178.30143,189.859568 C178.531541,190.382688 178.546728,190.971773 178.545286,191.54383 C178.543814,192.737494 178.38565,194.197934 178.111051,195.847065 C176.451335,205.792477 170.505104,222.624354 168.409711,229.510819" id="Stroke-200" stroke="#094193" stroke-width="0.5" stroke-linecap="round" stroke-linejoin="round"></path>
                    <path d="M180.131474,229.575158 C180.108617,229.57209 180.086986,229.569022 180.064128,229.567487 C179.356766,229.480045 178.635751,229.417301 177.907065,229.374194 C175.320767,229.220786 172.623862,229.314365 170.043394,229.435557 L170.043394,229.437244 C169.492661,229.461636 168.946683,229.48925 168.409757,229.515329 C168.399018,229.515329 168.386592,229.516863 168.375854,229.516863" id="Stroke-201" stroke="#094193" stroke-width="0.5" stroke-linecap="round" stroke-linejoin="round"></path>
                    <path d="M180.579409,236.248386 C176.20576,236.495373 171.655692,236.179353 167.386359,236.107252 L167.349695,236.107252" id="Stroke-202" stroke="#094193" stroke-width="0.5" stroke-linecap="round" stroke-linejoin="round"></path>
                    <path d="M175.831568,232.713876 C173.884826,232.634105 171.523884,232.338028 169.32402,232.301364" id="Stroke-203" stroke="#094193" stroke-width="0.5" stroke-linecap="round" stroke-linejoin="round"></path>
                    <path d="M177.904073,229.434038 C177.118627,230.96658 176.584768,231.770435 175.96807,232.786147 C175.64438,233.316937 175.299213,233.907403 174.881945,234.689781" id="Stroke-204" stroke="#094193" stroke-width="0.5" stroke-linecap="round" stroke-linejoin="round"></path>
                    <path d="M174.871129,234.889303 C176.190588,235.077841 178.327402,235.509069 180.628515,236.033723 C185.210799,237.073673 190.443684,238.48042 191.176818,239.067971 C192.129479,239.83056 191.525207,241.495032 190.369895,241.536452 C183.113717,241.798779 174.33589,242.265138 166.823369,241.584009 C166.202068,241.528628 165.723437,240.997838 165.682044,240.375157 C165.668364,240.167903 166.786705,237.359165 167.37579,236.13037 C167.378704,236.1227 167.383307,236.114876 167.386375,236.107206 C167.986198,234.8554 168.532483,233.490226 169.031057,232.187796 C169.392946,231.244186 169.730442,230.334633 170.048149,229.521573" id="Stroke-205" stroke="#094193" stroke-width="0.5" stroke-linecap="round" stroke-linejoin="round"></path>
                    <path d="M154.043062,174.257959 C152.498248,180.214774 150.813833,184.996487 149.269019,190.951769 C148.733627,193.019702 148.528061,195.828595 147.133586,197.443976" id="Stroke-206" stroke="#094193" stroke-width="0.5" stroke-linecap="round" stroke-linejoin="round"></path>
                    <path d="M143.100486,155.097294 C143.097418,155.10343 143.092816,155.109566 143.089748,155.115703 C139.199332,161.80734 137.056229,167.926921 135.775275,173.94648 C134.48205,180.020038 134.066315,185.99066 133.615297,192.343114" id="Stroke-207" stroke="#094193" stroke-width="0.5" stroke-linecap="round" stroke-linejoin="round"></path>
                    <path d="M147.265563,197.310588 C147.225523,197.358145 147.185637,197.407235 147.145905,197.454638 C137.852475,208.639736 128.230753,216.969613 115.437944,224.615446" id="Stroke-208" stroke="#094193" stroke-width="0.5" stroke-linecap="round" stroke-linejoin="round"></path>
                    <path d="M133.650642,192.379978 C125.641234,200.616429 117.375481,208.803944 109.030264,216.701211" id="Stroke-209" stroke="#094193" stroke-width="0.5" stroke-linecap="round" stroke-linejoin="round"></path>
                    <path d="M108.807762,216.751851 C108.830773,216.779464 108.855471,216.807078 108.878329,216.833157 C109.152929,217.149177 109.419858,217.460594 109.68065,217.768943 C111.438701,219.838411 112.96664,221.77288 114.744634,223.854621 C114.959404,224.106209 115.177397,224.359332 115.399684,224.615522" id="Stroke-210" stroke="#094193" stroke-width="0.5" stroke-linecap="round" stroke-linejoin="round"></path>
                    <path d="M114.666457,223.922151 C112.369793,225.16782 110.912421,226.364399 109.427589,227.539501 C108.45652,228.308073 107.473024,229.06744 106.233491,229.826808 C106.210633,229.842148 106.187468,229.855955 106.164611,229.869762" id="Stroke-211" stroke="#094193" stroke-width="0.5" stroke-linecap="round" stroke-linejoin="round"></path>
                    <path d="M109.424537,217.985248 C108.03313,219.295348 106.761381,220.533347 105.563115,221.749869 C105.198005,222.121115 104.840565,222.489294 104.487728,222.857472 C102.238773,225.207675 100.218396,227.527198 98.0877183,230.175012 C97.3145442,231.136877 96.5275635,232.141697 95.7083671,233.206345 C95.6606574,233.269242 95.6132545,233.33214 95.5640106,233.395037" id="Stroke-212" stroke="#094193" stroke-width="0.5" stroke-linecap="round" stroke-linejoin="round"></path>
                    <path d="M117.427793,232.152374 C117.124046,232.074136 114.60356,231.433046 111.862167,230.834603 C109.837188,230.392789 107.69255,229.975674 106.233491,229.826869 C106.187622,229.822267 106.14298,229.819045 106.100026,229.814596" id="Stroke-213" stroke="#094193" stroke-width="0.5" stroke-linecap="round" stroke-linejoin="round"></path>
                    <path d="M111.832912,231.029538 C111.828464,231.028004 111.823708,231.028004 111.819106,231.026317 C111.147181,230.886716 101.438017,230.483254 98.0875956,230.175058" id="Stroke-214" stroke="#094193" stroke-width="0.5" stroke-linecap="round" stroke-linejoin="round"></path>
                    <path d="M117.453857,232.152374 C118.831304,232.48082 119.093631,233.749347 118.102618,234.933806 C117.113139,236.116579 113.555771,236.391178 112.018474,236.516819 C107.351816,236.900338 102.671505,237.089183 97.9910409,237.265448 C92.6768498,237.466565 95.3048746,233.876675 95.7083365,233.206284 C95.7127853,233.198614 95.7175409,233.191097 95.7221431,233.183426" id="Stroke-215" stroke="#094193" stroke-width="0.5" stroke-linecap="round" stroke-linejoin="round"></path>
                    <path d="M201.740524,109.263795 C203.690334,110.724235 204.712028,111.976041 205.324124,114.315506 C205.330261,114.338517 205.336397,114.361528 205.342533,114.386074" id="Stroke-216" stroke="#094193" stroke-width="0.5" stroke-linecap="round" stroke-linejoin="round"></path>
                    <path d="M200.537839,109.961769 C200.582328,109.993985 200.625282,110.027888 200.668236,110.060103 C202.554995,111.49431 203.544627,112.752252 204.141383,115.084201" id="Stroke-217" stroke="#094193" stroke-width="0.5" stroke-linecap="round" stroke-linejoin="round"></path>
                    <path d="M201.597916,109.22394 C201.286499,109.507744 200.976616,109.786946 200.668113,110.060011 C196.975747,113.341399 193.505668,115.944725 189.771728,119.350373 C187.470615,121.44592 185.163365,123.549137 182.61051,125.328512" id="Stroke-218" stroke="#094193" stroke-width="0.5" stroke-linecap="round" stroke-linejoin="round"></path>
                    <path d="M147.437394,135.286288 C147.340594,135.387537 147.243948,135.491854 147.148835,135.599239 C146.358939,136.484554 145.620896,137.535243 144.902948,138.653584 C143.132625,141.407249 141.48825,144.567445 139.509139,146.647805 C138.84964,147.33952 138.185231,148.051331 137.784838,148.918083 C137.482625,149.5716 136.465533,150.726758 138.804998,152.863726" id="Stroke-219" stroke="#094193" stroke-width="0.5" stroke-linecap="round" stroke-linejoin="round"></path>
                    <path d="M140.978844,151.395585 C140.945095,151.42013 140.911498,151.444675 140.877595,151.46922 C140.237886,151.935733 139.547552,152.408228 138.818866,152.885172 C137.053145,154.038797 135.068051,155.216967 133.064549,156.376881 C130.030147,158.134932 126.951411,159.852943 124.513612,161.399291" id="Stroke-220" stroke="#094193" stroke-width="0.5" stroke-linecap="round" stroke-linejoin="round"></path>
                    <path d="M135.60194,173.908143 C134.727517,174.716754 133.329821,175.500514 132.455551,176.308971" id="Stroke-221" stroke="#094193" stroke-width="0.5" stroke-linecap="round" stroke-linejoin="round"></path>
                    <path d="M124.200645,161.388645 C124.234548,161.439269 124.268144,161.489894 124.301894,161.540365 C127.400726,166.162688 130.086893,171.096121 132.308387,176.252303" id="Stroke-222" stroke="#094193" stroke-width="0.5" stroke-linecap="round" stroke-linejoin="round"></path>
                    <path d="M145.080993,138.705758 C145.056448,140.66784 144.952131,143.088612 144.761905,145.533928 C144.540845,148.362763 144.20657,151.226882 143.75095,153.452826" id="Stroke-223" stroke="#094193" stroke-width="0.5" stroke-linecap="round" stroke-linejoin="round"></path>
                    <path d="M140.877565,151.470785 C141.210459,151.980098 141.68142,152.770147 142.126456,153.508037 C142.431583,154.012748 142.723058,154.492914 142.951788,154.841149" id="Stroke-224" stroke="#094193" stroke-width="0.5" stroke-linecap="round" stroke-linejoin="round"></path>
                    <path d="M139.977047,129.344906 C137.155882,134.160369 133.322227,140.594281 130.057868,145.122872 C129.459425,145.951273 128.836744,146.817873 128.683336,147.827294 C128.482219,149.155957 129.128065,150.452251 129.797075,151.61508 C130.829355,153.408261 131.801958,154.672493 133.037043,156.330675" id="Stroke-225" stroke="#094193" stroke-width="0.5" stroke-linecap="round" stroke-linejoin="round"></path>
                    <path d="M175.458696,187.437217 C175.458696,187.437217 179.988821,189.907078 181.038128,189.732194 C182.087436,189.557309 179.347731,190.431732 179.347731,191.539335 C179.347731,192.646937 178.171095,195.857758 178.171095,195.857758" id="Stroke-226" stroke="#094193" stroke-width="0.5" stroke-linecap="round" stroke-linejoin="round"></path>
                    <line x1="147.194995" y1="135.63911" x2="144.981171" y2="145.550772" id="Stroke-227" stroke="#094193" stroke-width="0.5" stroke-linecap="round" stroke-linejoin="round"></line>
                    <path d="M104.449422,222.806801 C104.463229,222.823676 104.475501,222.840704 104.487774,222.857426 C106.43605,225.410281 107.072845,225.759897 109.418446,227.527305" id="Stroke-228" stroke="#094193" stroke-width="0.5" stroke-linecap="round" stroke-linejoin="round"></path>
                    <path d="M457.607679,142.230037 C460.798556,141.782547 463.748123,144.006343 464.195613,147.197373 C464.643256,150.38825 462.419307,153.337664 459.228277,153.785307 C459.228123,153.785307 459.227663,153.785461 459.227356,153.785461 C456.036326,154.232644 453.086912,152.008541 452.639729,148.81751 C452.192392,145.626633 454.416649,142.67722 457.607679,142.230037 M450.071226,158.679775 L454.12993,153.547525 C455.621358,154.706366 457.518703,155.211844 459.389048,154.948443 C463.222396,154.41213 465.894909,150.86995 465.358749,147.036755 C464.822436,143.203407 461.280256,140.530741 457.447061,141.0669 C453.613867,141.603213 450.941047,145.145394 451.477206,148.978588 C451.672648,150.374597 452.284284,151.679175 453.232342,152.722193 L449.118565,157.925777 C448.919442,158.195928 448.97697,158.576532 449.247274,158.775655 C449.504385,158.965113 449.864433,158.923233 450.071226,158.679775" id="Fill-229" fill="#094193"></path>
                    <polygon id="Fill-231" fill="#FFFFFF" points="185.816896 70.093999 237.646559 70.093999 237.646559 64.2658926 185.816896 64.2658926"></polygon>
                    <polygon id="Fill-232" fill="#70AFFF" points="240.379361 70.0941524 252.934236 70.0941524 252.934236 64.2661994 240.379361 64.2661994"></polygon>
                    <polygon id="Fill-233" fill="#B1C0EB" points="255.6586 70.1969355 268.213475 70.1969355 268.213475 64.3689825 255.6586 64.3689825"></polygon>
                    <polygon id="路径-5" stroke="#094193" stroke-width="0.5" fill="#FFC53D" stroke-linejoin="round" points="374.747718 26.5387328 383.582129 17.979858 390.468174 28.5112378"></polygon>
                </g>
            </g>
        </g>
    </g>
</svg>